<?xml version="1.0" encoding="utf-8"?>
<!-- Generator: Adobe Illustrator 27.6.1, SVG Export Plug-In . SVG Version: 6.00 Build 0)  -->
<svg version="1.1" id="Layer_1" xmlns="http://www.w3.org/2000/svg" xmlns:xlink="http://www.w3.org/1999/xlink" x="0px" y="0px"
	 viewBox="0 0 148.64 157.32" style="enable-background:new 0 0 148.64 157.32;" xml:space="preserve">
<style type="text/css">
	.st0{fill:#77CBED;}
	.st1{fill:#FFFFFF;}
</style>
<g>
	<polygon class="st0" points="5.24,52.57 50.7,8.35 50.7,19.65 17.79,52.71 50.7,86.29 50.7,97.79 	"/>
	<polygon class="st0" points="97.01,86.29 129.91,52.71 97.01,19.65 97.01,8.35 142.47,52.57 97.01,97.79 	"/>
</g>
<g>
	<path class="st1" d="M99.29,48.98h-5.3c-1.69,0-3.17-0.96-3.82-2.55c-0.65-1.58-0.31-3.3,0.89-4.51l3.75-3.75
		c0.31-0.34,0.31-0.86,0-1.17l-4.78-4.78c-0.31-0.31-0.83-0.31-1.17,0l-3.75,3.75c-1.21,1.21-2.93,1.55-4.51,0.9
		c-1.58-0.66-2.55-2.1-2.55-3.82v-5.3c0-0.45-0.38-0.83-0.83-0.83h-6.75c-0.48,0-0.83,0.38-0.83,0.83v5.3c0,1.72-1,3.17-2.55,3.82
		c-1.58,0.65-3.34,0.31-4.51-0.9l-3.75-3.75c-0.34-0.31-0.86-0.31-1.17,0L52.9,37c-0.31,0.31-0.31,0.83,0,1.17l3.75,3.75
		c1.21,1.21,1.55,2.93,0.9,4.51c-0.65,1.58-2.13,2.55-3.82,2.55h-5.3c-0.48,0-0.83,0.38-0.83,0.83v6.75c0,0.45,0.34,0.83,0.83,0.83
		h5.3c1.69,0,3.17,1,3.82,2.55c0.65,1.58,0.31,3.3-0.9,4.51l-3.75,3.75c-0.31,0.34-0.31,0.86,0,1.17l4.78,4.78
		c0.31,0.31,0.83,0.31,1.17,0l3.75-3.75c0.79-0.79,1.83-1.24,2.89-1.24c0.52,0,1.07,0.14,1.62,0.34c1.55,0.65,2.55,2.13,2.55,3.82
		v5.3c0,0.48,0.34,0.82,0.83,0.82h6.75c0.45,0,0.83-0.34,0.83-0.82v-5.3c0-1.69,0.96-3.17,2.55-3.82c1.58-0.66,3.3-0.31,4.51,0.89
		l3.75,3.75c0.34,0.31,0.86,0.31,1.17,0l4.78-4.78c0.31-0.31,0.31-0.83,0-1.14l-3.75-3.79c-1.2-1.21-1.55-2.93-0.89-4.51
		c0.65-1.55,2.13-2.55,3.82-2.55h5.3c0.45,0,0.83-0.38,0.83-0.83v-6.75C100.12,49.36,99.74,48.98,99.29,48.98z M73.86,64.23
		c-6.09,0-11.01-4.96-11.01-11.05s4.92-11.01,11.01-11.01c6.09,0,11.01,4.92,11.01,11.01S79.95,64.23,73.86,64.23z"/>
</g>
<g>
	<rect x="38.84" y="119.27" class="st1" width="70.03" height="8.54"/>
	<rect x="48.02" y="131.26" class="st1" width="51.68" height="8.53"/>
	<rect x="58.56" y="142.17" class="st1" width="30.6" height="8.54"/>
</g>
</svg>
