<?xml version="1.0" encoding="utf-8"?>
<!-- Generator: Adobe Illustrator 27.6.1, SVG Export Plug-In . SVG Version: 6.00 Build 0)  -->
<svg version="1.1" id="Layer_1" xmlns="http://www.w3.org/2000/svg" xmlns:xlink="http://www.w3.org/1999/xlink" x="0px" y="0px"
	 viewBox="0 0 682.93 162.19" style="enable-background:new 0 0 682.93 162.19;" xml:space="preserve">
<style type="text/css">
	.st0{fill:none;}
	.st1{fill:#FFFFFF;}
	.st2{fill:#76CBE9;}
</style>
<rect x="-163.88" y="-264.24" class="st0" width="1025.22" height="717.56"/>
<g>
	<path class="st1" d="M269.58,49.9l46.1-41.53h25.19L282.1,59.47l59.06,52.58h-25.33l-46.25-41.39l-45.96,41.39h-25.63l59.21-51.85
		L197.99,8.36h25.48L269.58,49.9z"/>
	<path class="st1" d="M351.02,8.36h19.59v103.69h-19.59V8.36z"/>
	<path class="st1" d="M386.08,8.36h19.59v88.37h84.1v15.32H386.08V8.36z"/>
	<path class="st1" d="M503.9,8.36h90.58c28.57,0,42.86,9.43,42.86,28.28v47.43c0,18.66-14.29,27.99-42.86,27.99H503.9V8.36z
		 M594.49,96.73c15.51,0,23.27-4.22,23.27-12.67V36.64c0-8.64-7.76-12.96-23.27-12.96H523.5v73.05H594.49z"/>
	<path class="st1" d="M654.43,8.36h19.59v103.69h-19.59V8.36z"/>
</g>
<g>
	<g>
		<path class="st2" d="M197.82,128.28h3.05l10.27,14.12l10.22-14.12h2.8v17.3h-3.14v-12.02l-8.67,12.02h-2.68l-8.7-11.99v11.99
			h-3.15V128.28z"/>
		<path class="st2" d="M232.93,132.02c0-2.49,2.06-3.73,6.17-3.73h9.92c4.11,0,6.17,1.24,6.17,3.73v9.87c0,2.46-2.06,3.69-6.17,3.69
			h-9.92c-4.11,0-6.17-1.24-6.17-3.74V132.02z M249.02,143.02c1.93,0,2.9-0.38,2.9-1.14v-9.87c0-0.79-0.97-1.18-2.9-1.18h-9.92
			c-1.93,0-2.9,0.39-2.9,1.18v9.82c0,0.79,0.97,1.18,2.9,1.18H249.02z"/>
		<path class="st2" d="M263.83,145.58v-17.3h13.69c4.11,0,6.16,1.24,6.16,3.73v2.11c0,2.08-1.42,3.29-4.27,3.63l4.1,7.81h-3.49
			l-4.05-7.72h-8.87v7.72H263.83z M267.1,130.84v4.47h10.42c1.93,0,2.9-0.39,2.9-1.18v-2.11c0-0.79-0.97-1.18-2.9-1.18H267.1z"/>
		<path class="st2" d="M294.96,137.71v5.31h14.52v2.55h-17.79v-17.3h17.79v2.55h-14.52v4.32h13.78v2.55H294.96z"/>
		<path class="st2" d="M334.98,128.28h21.15v2.55h-8.82v14.74h-3.27v-14.74h-9.06V128.28z"/>
		<path class="st2" d="M381.39,137.71h-14.15v7.87h-3.27v-17.3h3.27v6.88h14.15v-6.88h3.26v17.3h-3.26V137.71z"/>
		<path class="st2" d="M417.23,145.58h-3.54l-9.06-14.13l-9.21,14.13h-3.49l11.5-17.3h2.38L417.23,145.58z"/>
		<path class="st2" d="M427.57,132.41v13.17h-3.09v-17.3h2.58l17.22,13.26v-13.26h3.1v17.3h-2.58L427.57,132.41z"/>
		<path class="st2" d="M477.27,132.41v13.17h-3.09v-17.3h2.58l17.22,13.26v-13.26h3.1v17.3h-2.58L477.27,132.41z"/>
		<path class="st2" d="M521.24,143.02c1.93,0,2.89-0.62,2.89-1.87v-12.87h3.27v12.87c0,2.94-2.06,4.42-6.17,4.42h-9.19
			c-4.11,0-6.17-1.49-6.17-4.47v-12.82h3.27v12.82c0,1.28,0.96,1.92,2.9,1.92H521.24z"/>
		<path class="st2" d="M536.23,128.28h3.04l10.27,14.12l10.22-14.12h2.8v17.3h-3.15v-12.02l-8.67,12.02h-2.67l-8.7-11.99v11.99
			h-3.14V128.28z"/>
		<path class="st2" d="M571.41,128.28h13.44c4.11,0,6.17,1.24,6.17,3.73v1.64c0,1.45-0.64,2.44-1.92,3c1.28,0.59,1.92,1.49,1.92,2.7
			v2.48c0,2.49-2.06,3.74-6.17,3.74h-13.44V128.28z M574.68,130.84v4.54h10.39c0.89,0,1.55-0.11,2-0.33
			c0.45-0.22,0.67-0.5,0.67-0.85v-2.19c0-0.79-0.96-1.18-2.9-1.18H574.68z M584.85,143.02c1.93,0,2.9-0.4,2.9-1.18v-2.73
			c0-0.36-0.22-0.65-0.67-0.86c-0.45-0.21-1.14-0.32-2.05-0.32h-10.34v5.09H584.85z"/>
		<path class="st2" d="M603,137.71v5.31h14.52v2.55h-17.79v-17.3h17.79v2.55H603v4.32h13.78v2.55H603z"/>
		<path class="st2" d="M626.12,145.58v-17.3h13.69c4.11,0,6.16,1.24,6.16,3.73v2.11c0,2.08-1.42,3.29-4.27,3.63l4.1,7.81h-3.49
			l-4.05-7.72h-8.87v7.72H626.12z M629.39,130.84v4.47h10.42c1.93,0,2.9-0.39,2.9-1.18v-2.11c0-0.79-0.97-1.18-2.9-1.18H629.39z"/>
		<path class="st2" d="M669.33,135.09c4.11,0,6.17,1.24,6.17,3.74v3.07c0,2.46-2.05,3.69-6.17,3.69h-14.76v-2.55h14.76
			c1.94,0,2.9-0.38,2.9-1.14v-3.07c0-0.79-0.96-1.18-2.9-1.18h-9.19c-4.11,0-6.17-1.24-6.17-3.73v-1.89c0-2.49,2.06-3.73,6.17-3.73
			h14.27v2.55h-14.27c-1.93,0-2.9,0.39-2.9,1.18v1.89c0,0.79,0.97,1.18,2.9,1.18H669.33z"/>
	</g>
</g>
<g>
	<polygon class="st2" points="6.46,57.45 51.92,13.23 51.92,24.53 19.01,57.59 51.92,91.17 51.92,102.66 	"/>
	<polygon class="st2" points="98.23,91.17 131.13,57.59 98.23,24.53 98.23,13.23 143.69,57.45 98.23,102.66 	"/>
</g>
<g>
	<path class="st1" d="M100.51,53.86h-5.3c-1.69,0-3.17-0.96-3.82-2.55c-0.65-1.58-0.31-3.3,0.89-4.51l3.75-3.75
		c0.31-0.34,0.31-0.86,0-1.17l-4.78-4.78c-0.31-0.31-0.83-0.31-1.17,0l-3.75,3.75c-1.21,1.21-2.93,1.55-4.51,0.9
		c-1.58-0.66-2.55-2.1-2.55-3.82v-5.3c0-0.45-0.38-0.83-0.83-0.83H71.7c-0.48,0-0.83,0.38-0.83,0.83v5.3c0,1.72-1,3.17-2.55,3.82
		c-1.58,0.65-3.34,0.31-4.51-0.9l-3.75-3.75c-0.34-0.31-0.86-0.31-1.17,0l-4.78,4.78c-0.31,0.31-0.31,0.83,0,1.17l3.75,3.75
		c1.21,1.21,1.55,2.93,0.9,4.51c-0.65,1.58-2.13,2.55-3.82,2.55h-5.3c-0.48,0-0.83,0.38-0.83,0.83v6.75c0,0.45,0.34,0.83,0.83,0.83
		h5.3c1.69,0,3.17,1,3.82,2.55c0.65,1.58,0.31,3.3-0.9,4.51l-3.75,3.75c-0.31,0.34-0.31,0.86,0,1.17l4.78,4.78
		c0.31,0.31,0.83,0.31,1.17,0l3.75-3.75c0.79-0.79,1.83-1.24,2.89-1.24c0.52,0,1.07,0.14,1.62,0.34c1.55,0.65,2.55,2.13,2.55,3.82
		v5.3c0,0.48,0.34,0.82,0.83,0.82h6.75c0.45,0,0.83-0.34,0.83-0.82v-5.3c0-1.69,0.96-3.17,2.55-3.82c1.58-0.66,3.3-0.31,4.51,0.89
		l3.75,3.75c0.34,0.31,0.86,0.31,1.17,0l4.78-4.78c0.31-0.31,0.31-0.83,0-1.14l-3.75-3.79c-1.2-1.21-1.55-2.93-0.89-4.51
		c0.65-1.55,2.13-2.55,3.82-2.55h5.3c0.45,0,0.83-0.38,0.83-0.83v-6.75C101.33,54.24,100.96,53.86,100.51,53.86z M75.08,69.11
		c-6.09,0-11.01-4.96-11.01-11.05s4.92-11.01,11.01-11.01c6.09,0,11.01,4.92,11.01,11.01S81.17,69.11,75.08,69.11z"/>
</g>
<g>
	<rect x="40.06" y="124.15" class="st1" width="70.03" height="8.54"/>
	<rect x="49.24" y="136.14" class="st1" width="51.68" height="8.53"/>
	<rect x="59.78" y="147.05" class="st1" width="30.6" height="8.54"/>
</g>
</svg>
