<?xml version="1.0" encoding="utf-8"?>
<!-- Generator: Adobe Illustrator 27.7.0, SVG Export Plug-In . SVG Version: 6.00 Build 0)  -->
<svg version="1.1" id="Layer_1" xmlns="http://www.w3.org/2000/svg" xmlns:xlink="http://www.w3.org/1999/xlink" x="0px" y="0px"
	 viewBox="0 0 55.8 54.4" style="enable-background:new 0 0 55.8 54.4;" xml:space="preserve">
<g>
	<path d="M53.3,23H48c-1.7,0-3.2-1-3.8-2.5c-0.7-1.6-0.3-3.3,0.9-4.5l3.8-3.8c0.3-0.3,0.3-0.9,0-1.2l-4.8-4.8
		c-0.3-0.3-0.8-0.3-1.2,0L39.1,10c-1.2,1.2-2.9,1.5-4.5,0.9c-1.6-0.7-2.6-2.1-2.6-3.8V1.8c0-0.5-0.4-0.8-0.8-0.8h-6.8
		c-0.5,0-0.8,0.4-0.8,0.8v5.3c0,1.7-1,3.2-2.6,3.8c-1.6,0.7-3.3,0.3-4.5-0.9l-3.8-3.8c-0.3-0.3-0.9-0.3-1.2,0L6.9,11
		c-0.3,0.3-0.3,0.8,0,1.2l3.8,3.8c1.2,1.2,1.5,2.9,0.9,4.5C10.9,22,9.4,23,7.8,23H2.5c-0.5,0-0.8,0.4-0.8,0.8v6.8
		c0,0.5,0.3,0.8,0.8,0.8h5.3c1.7,0,3.2,1,3.8,2.6c0.7,1.6,0.3,3.3-0.9,4.5l-3.8,3.8c-0.3,0.3-0.3,0.9,0,1.2l4.8,4.8
		c0.3,0.3,0.8,0.3,1.2,0l3.8-3.8c0.8-0.8,1.8-1.2,2.9-1.2c0.5,0,1.1,0.1,1.6,0.3c1.6,0.7,2.6,2.1,2.6,3.8v5.3c0,0.5,0.3,0.8,0.8,0.8
		h6.8c0.4,0,0.8-0.3,0.8-0.8v-5.3c0-1.7,1-3.2,2.6-3.8c1.6-0.7,3.3-0.3,4.5,0.9l3.8,3.8c0.3,0.3,0.9,0.3,1.2,0l4.8-4.8
		c0.3-0.3,0.3-0.8,0-1.1l-3.8-3.8c-1.2-1.2-1.6-2.9-0.9-4.5c0.7-1.5,2.1-2.6,3.8-2.6h5.3c0.4,0,0.8-0.4,0.8-0.8v-6.8
		C54.1,23.4,53.8,23,53.3,23z M27.9,38.2c-6.1,0-11-5-11-11.1s4.9-11,11-11s11,4.9,11,11S34,38.2,27.9,38.2z"/>
</g>
</svg>
