<?xml version="1.0" encoding="UTF-8"?>
<svg xmlns="http://www.w3.org/2000/svg" xmlns:xlink="http://www.w3.org/1999/xlink" width="px" height="200px" viewBox="0 0 426 200" version="1.1">
<g id="surface1">
<path style=" stroke:none;fill-rule:nonzero;fill:rgb(96.470588%,90.980392%,16.862745%);fill-opacity:1;" d="M 418.007812 0.246094 C 409.515625 48.054688 399.328125 81.421875 376.867188 108.539062 C 319.90625 177.324219 237.140625 187.347656 156.707031 152.429688 L 123.609375 171.1875 C 160.554688 189.816406 198.730469 199.671875 235.476562 199.753906 L 236.257812 199.753906 C 290.738281 199.671875 341.917969 178.074219 380.980469 131.851562 C 408.632812 99.132812 422.289062 52.105469 426 10.699219 Z M 418.007812 0.246094 "/>
<path style=" stroke:none;fill-rule:nonzero;fill:rgb(52.941176%,52.941176%,52.941176%);fill-opacity:1;" d="M 145.75 105.804688 C 144.628906 105.726562 143.515625 105.558594 142.421875 105.304688 C 141.421875 105.128906 140.449219 104.828125 139.523438 104.402344 C 138.589844 103.949219 137.824219 103.207031 137.34375 102.285156 C 136.949219 101.347656 136.761719 100.332031 136.792969 99.316406 L 136.792969 47.90625 C 136.78125 46.855469 136.96875 45.816406 137.34375 44.835938 C 137.734375 43.871094 138.535156 43.132812 139.523438 42.820312 C 140.472656 42.503906 141.441406 42.253906 142.421875 42.066406 C 143.519531 41.828125 144.632812 41.675781 145.75 41.617188 L 145.75 38.050781 L 117.546875 38.050781 L 117.546875 41.617188 C 118.625 41.71875 119.6875 41.921875 120.726562 42.21875 C 121.804688 42.496094 122.855469 42.882812 123.855469 43.367188 C 124.800781 43.789062 125.566406 44.527344 126.023438 45.453125 C 126.441406 46.375 126.652344 47.375 126.636719 48.386719 L 126.636719 70.066406 L 94.703125 70.066406 L 94.703125 47.90625 C 94.691406 46.855469 94.878906 45.816406 95.253906 44.835938 C 95.644531 43.871094 96.441406 43.132812 97.433594 42.820312 C 98.382812 42.503906 99.351562 42.253906 100.332031 42.066406 C 101.425781 41.828125 102.539062 41.675781 103.660156 41.617188 L 103.660156 38.050781 L 75.40625 38.050781 L 75.40625 41.617188 C 76.484375 41.71875 77.546875 41.921875 78.585938 42.21875 C 79.664062 42.496094 80.714844 42.882812 81.71875 43.367188 C 82.691406 43.769531 83.488281 44.511719 83.964844 45.453125 C 84.390625 46.371094 84.605469 47.375 84.597656 48.386719 L 84.597656 99.882812 C 84.644531 100.988281 84.414062 102.089844 83.929688 103.085938 C 83.46875 103.921875 82.726562 104.570312 81.832031 104.917969 C 80.871094 105.277344 79.859375 105.480469 78.835938 105.519531 L 75.507812 105.820312 L 75.507812 109.386719 L 103.609375 109.386719 L 103.609375 105.804688 C 102.488281 105.726562 101.375 105.558594 100.28125 105.304688 C 99.28125 105.128906 98.308594 104.828125 97.382812 104.402344 C 96.449219 103.949219 95.683594 103.207031 95.203125 102.285156 C 94.808594 101.347656 94.621094 100.332031 94.652344 99.316406 L 94.652344 74.484375 L 126.65625 74.484375 L 126.65625 99.882812 C 126.703125 100.988281 126.472656 102.089844 125.988281 103.085938 C 125.527344 103.910156 124.800781 104.550781 123.925781 104.902344 C 122.964844 105.261719 121.953125 105.464844 120.925781 105.503906 L 117.597656 105.804688 L 117.597656 109.371094 L 145.75 109.371094 Z M 145.75 105.804688 "/>
<path style=" stroke:none;fill-rule:nonzero;fill:rgb(52.941176%,52.941176%,52.941176%);fill-opacity:1;" d="M 211.085938 88.359375 C 210.242188 90.84375 209.207031 93.257812 207.988281 95.582031 C 206.78125 98.21875 205.226562 100.683594 203.359375 102.902344 C 202.59375 103.625 201.644531 104.121094 200.613281 104.335938 C 199.378906 104.679688 198.121094 104.921875 196.851562 105.070312 C 195.402344 105.214844 193.945312 105.285156 192.488281 105.269531 L 188.324219 105.269531 C 186.277344 105.296875 184.234375 105.203125 182.199219 104.984375 C 181 104.867188 179.855469 104.445312 178.867188 103.753906 C 177.996094 103.039062 177.40625 102.042969 177.203125 100.933594 C 176.878906 99.285156 176.734375 97.609375 176.769531 95.929688 L 176.769531 74.484375 L 184.429688 74.484375 C 186.113281 74.4375 187.796875 74.636719 189.425781 75.085938 C 190.773438 75.574219 191.9375 76.472656 192.753906 77.65625 C 193.542969 78.851562 194.132812 80.171875 194.503906 81.554688 C 195.035156 83.214844 195.382812 84.925781 195.535156 86.660156 L 199.128906 86.660156 L 199.128906 58.710938 L 195.519531 58.710938 C 195.332031 60.273438 195.003906 61.8125 194.535156 63.3125 C 194.152344 64.703125 193.546875 66.023438 192.738281 67.214844 C 191.96875 68.277344 190.9375 69.117188 189.742188 69.648438 C 188.007812 70.226562 186.183594 70.476562 184.363281 70.382812 L 176.703125 70.382812 L 176.703125 41.933594 L 187.375 41.933594 C 189.128906 41.933594 190.695312 41.96875 192.070312 42.035156 C 193.449219 42.101562 194.628906 42.203125 195.617188 42.335938 C 197.527344 42.601562 199.546875 44.167969 201.679688 47.039062 C 203.589844 49.484375 204.996094 52.28125 205.824219 55.277344 L 209.421875 55.277344 L 209.421875 38.050781 L 156.839844 38.050781 L 156.839844 41.617188 C 158.007812 41.734375 159.164062 41.9375 160.304688 42.21875 C 161.5 42.464844 162.660156 42.851562 163.765625 43.367188 C 164.734375 43.761719 165.519531 44.507812 165.964844 45.453125 C 166.332031 46.386719 166.515625 47.382812 166.496094 48.386719 L 166.496094 99.683594 C 166.535156 100.738281 166.332031 101.789062 165.898438 102.75 C 165.425781 103.628906 164.675781 104.320312 163.765625 104.71875 C 162.761719 105.078125 161.714844 105.308594 160.652344 105.402344 C 159.054688 105.613281 157.777344 105.753906 156.824219 105.820312 L 156.824219 109.386719 L 213.234375 109.386719 L 214.53125 88.378906 Z M 211.085938 88.359375 "/>
<path style=" stroke:none;fill-rule:nonzero;fill:rgb(52.941176%,52.941176%,52.941176%);fill-opacity:1;" d="M 262.117188 80.289062 L 241.703125 80.289062 L 251.84375 52.605469 Z M 289.457031 109.4375 L 289.457031 105.804688 C 288.453125 105.730469 287.457031 105.550781 286.492188 105.269531 C 285.476562 105.023438 284.507812 104.621094 283.613281 104.085938 C 282.652344 103.429688 281.800781 102.632812 281.082031 101.71875 C 280.375 100.75 279.8125 99.679688 279.414062 98.550781 L 256.773438 37.015625 L 252.941406 37.015625 L 241.96875 66.847656 C 237.851562 78.03125 234.089844 88.070312 230.683594 96.964844 C 230.160156 98.410156 229.46875 99.789062 228.617188 101.066406 C 227.792969 102.171875 226.792969 103.128906 225.652344 103.902344 C 224.710938 104.5 223.675781 104.933594 222.589844 105.1875 C 221.570312 105.464844 220.527344 105.660156 219.476562 105.769531 L 219.476562 109.339844 L 245.066406 109.339844 L 245.066406 105.804688 C 242.746094 105.710938 240.449219 105.273438 238.257812 104.503906 C 236.25 103.769531 235.242188 102.730469 235.242188 101.382812 C 235.257812 100.640625 235.335938 99.898438 235.476562 99.167969 C 235.703125 97.980469 235.992188 96.804688 236.34375 95.648438 C 236.785156 94.167969 237.292969 92.5625 237.859375 90.828125 C 238.425781 89.09375 239.152344 87.046875 240.039062 84.691406 L 263.882812 84.691406 L 269.507812 100.683594 C 269.640625 101.054688 269.738281 101.441406 269.792969 101.835938 C 269.851562 102.199219 269.882812 102.566406 269.890625 102.933594 C 269.890625 103.667969 269.078125 104.285156 267.429688 104.800781 C 265.40625 105.367188 263.328125 105.703125 261.234375 105.804688 L 261.234375 109.371094 Z M 289.457031 109.4375 "/>
<path style=" stroke:none;fill-rule:nonzero;fill:rgb(52.941176%,52.941176%,52.941176%);fill-opacity:1;" d="M 349.226562 74.121094 C 349.289062 78.4375 348.832031 82.75 347.863281 86.960938 C 347.046875 90.460938 345.578125 93.777344 343.535156 96.730469 C 341.644531 99.417969 339.109375 101.582031 336.15625 103.019531 C 332.835938 104.597656 329.195312 105.378906 325.519531 105.304688 C 322.800781 105.5 320.085938 104.890625 317.710938 103.550781 C 316.023438 102.382812 315.179688 100.273438 315.179688 97.214844 L 315.179688 42.367188 L 318.84375 42.25 C 320.507812 42.25 321.957031 42.25 323.269531 42.25 C 326.972656 42.199219 330.636719 43.003906 333.976562 44.601562 C 337.101562 46.117188 339.851562 48.304688 342.035156 51.007812 C 344.429688 54.011719 346.234375 57.449219 347.347656 61.128906 C 348.605469 65.339844 349.21875 69.722656 349.160156 74.121094 M 360.816406 74.121094 C 360.976562 68.261719 359.839844 62.441406 357.488281 57.078125 C 355.371094 52.464844 352.144531 48.453125 348.097656 45.402344 C 344.96875 43.058594 341.476562 41.25 337.757812 40.050781 C 333.867188 38.738281 329.789062 38.070312 325.683594 38.066406 L 296.066406 38.066406 L 296.066406 41.632812 C 297.0625 41.726562 298.050781 41.875 299.027344 42.085938 C 300.144531 42.308594 301.226562 42.675781 302.242188 43.1875 C 303.199219 43.589844 303.976562 44.332031 304.421875 45.269531 C 304.804688 46.246094 304.988281 47.289062 304.972656 48.339844 L 304.972656 99.882812 C 305.003906 100.953125 304.78125 102.015625 304.324219 102.984375 C 303.878906 103.855469 303.140625 104.539062 302.242188 104.917969 C 301.292969 105.261719 300.300781 105.476562 299.296875 105.554688 C 298.097656 105.71875 296.890625 105.8125 295.683594 105.835938 L 295.683594 109.40625 L 323.835938 109.40625 C 328.4375 109.414062 333.011719 108.699219 337.390625 107.289062 C 341.691406 105.914062 345.703125 103.75 349.210938 100.902344 C 352.800781 97.910156 355.695312 94.171875 357.6875 89.945312 C 359.984375 85.011719 361.125 79.613281 361.015625 74.167969 "/>
<path style=" stroke:none;fill-rule:nonzero;fill:rgb(52.941176%,52.941176%,52.941176%);fill-opacity:1;" d="M 22.242188 80.289062 L 32.351562 52.539062 L 42.671875 80.289062 Z M 70.011719 105.804688 C 69.007812 105.742188 68.015625 105.574219 67.046875 105.304688 C 66.035156 105.054688 65.0625 104.65625 64.167969 104.117188 C 63.207031 103.464844 62.355469 102.664062 61.636719 101.75 C 60.929688 100.78125 60.371094 99.714844 59.972656 98.582031 L 37.34375 37.03125 L 33.515625 37.03125 L 22.511719 66.847656 C 18.390625 78.03125 14.625 88.070312 11.207031 96.964844 C 10.683594 98.410156 9.992188 99.789062 9.140625 101.066406 C 8.316406 102.171875 7.316406 103.128906 6.175781 103.902344 C 5.242188 104.542969 4.207031 105.015625 3.113281 105.304688 C 2.09375 105.582031 1.050781 105.777344 0 105.886719 L 0 109.457031 L 25.589844 109.457031 L 25.589844 105.804688 C 23.273438 105.710938 20.984375 105.273438 18.796875 104.503906 C 16.734375 103.769531 15.699219 102.730469 15.699219 101.382812 C 15.714844 100.640625 15.792969 99.898438 15.933594 99.167969 C 16.089844 98.265625 16.378906 97.09375 16.800781 95.648438 C 17.222656 94.203125 17.726562 92.597656 18.316406 90.828125 C 18.871094 89.082031 19.597656 87.039062 20.496094 84.691406 L 44.421875 84.691406 L 50.050781 100.667969 C 50.183594 101.039062 50.28125 101.425781 50.332031 101.816406 C 50.390625 102.183594 50.421875 102.550781 50.433594 102.917969 C 50.433594 103.652344 49.609375 104.269531 47.96875 104.769531 C 45.949219 105.335938 43.871094 105.667969 41.773438 105.769531 L 41.773438 109.339844 L 70.078125 109.339844 Z M 70.011719 105.804688 "/>
<path style=" stroke:none;fill-rule:nonzero;fill:rgb(52.941176%,52.941176%,52.941176%);fill-opacity:1;" d="M 1.863281 123.496094 L 4.378906 123.496094 L 6.941406 134.367188 L 9.808594 123.496094 L 12.371094 123.496094 L 15.152344 134.367188 L 17.796875 123.496094 L 20.328125 123.496094 L 16.417969 137.703125 L 13.9375 137.703125 L 11.105469 126.847656 L 8.160156 137.71875 L 5.59375 137.71875 Z M 1.863281 123.496094 "/>
<path style=" stroke:none;fill-rule:nonzero;fill:rgb(52.941176%,52.941176%,52.941176%);fill-opacity:1;" d="M 24.691406 133.152344 C 24.691406 133.542969 24.746094 133.929688 24.859375 134.300781 C 24.960938 134.652344 25.128906 134.984375 25.359375 135.269531 C 25.585938 135.550781 25.878906 135.78125 26.207031 135.9375 C 26.59375 136.109375 27.015625 136.195312 27.4375 136.1875 C 28.027344 136.226562 28.609375 136.074219 29.105469 135.753906 C 29.53125 135.429688 29.847656 134.980469 30.003906 134.46875 L 32.152344 134.46875 C 31.9375 135.515625 31.34375 136.441406 30.484375 137.070312 C 30.066406 137.375 29.601562 137.605469 29.105469 137.753906 C 28.5625 137.914062 28.003906 137.992188 27.4375 137.988281 C 26.703125 138 25.972656 137.863281 25.289062 137.585938 C 24.6875 137.335938 24.148438 136.953125 23.710938 136.46875 C 23.277344 135.988281 22.949219 135.417969 22.742188 134.800781 C 22.515625 134.097656 22.402344 133.359375 22.410156 132.617188 C 22.40625 131.90625 22.523438 131.203125 22.761719 130.535156 C 22.988281 129.921875 23.328125 129.355469 23.757812 128.867188 C 24.65625 127.792969 25.992188 127.179688 27.390625 127.199219 C 28.144531 127.183594 28.894531 127.355469 29.570312 127.699219 C 30.21875 128.015625 30.789062 128.476562 31.234375 129.050781 C 31.667969 129.621094 31.984375 130.273438 32.167969 130.96875 C 32.359375 131.695312 32.410156 132.453125 32.316406 133.203125 Z M 29.96875 131.652344 C 29.941406 131.296875 29.863281 130.949219 29.738281 130.617188 C 29.617188 130.296875 29.445312 130.003906 29.21875 129.75 C 28.996094 129.5 28.722656 129.296875 28.421875 129.148438 C 28.09375 128.992188 27.734375 128.910156 27.371094 128.914062 C 27 128.914062 26.632812 128.988281 26.289062 129.132812 C 25.976562 129.265625 25.691406 129.464844 25.457031 129.714844 C 25.222656 129.96875 25.039062 130.261719 24.90625 130.582031 C 24.765625 130.921875 24.6875 131.285156 24.675781 131.652344 Z M 29.96875 131.652344 "/>
<path style=" stroke:none;fill-rule:nonzero;fill:rgb(52.941176%,52.941176%,52.941176%);fill-opacity:1;" d="M 44.15625 135.417969 C 44.140625 135.625 44.183594 135.832031 44.273438 136.019531 C 44.371094 136.15625 44.539062 136.226562 44.703125 136.203125 L 45.253906 136.203125 L 45.253906 137.769531 L 44.953125 137.855469 L 44.570312 137.9375 L 43.839844 137.9375 C 43.4375 137.949219 43.039062 137.851562 42.691406 137.652344 C 42.359375 137.433594 42.140625 137.082031 42.089844 136.6875 C 41.621094 137.132812 41.050781 137.460938 40.425781 137.636719 C 39.8125 137.832031 39.171875 137.929688 38.527344 137.9375 C 38.078125 137.941406 37.628906 137.878906 37.195312 137.753906 C 36.792969 137.640625 36.414062 137.453125 36.078125 137.203125 C 35.75 136.957031 35.480469 136.636719 35.296875 136.269531 C 35.101562 135.859375 35.003906 135.40625 35.015625 134.953125 C 34.992188 134.414062 35.113281 133.878906 35.363281 133.402344 C 35.585938 133.015625 35.898438 132.695312 36.28125 132.46875 C 36.671875 132.238281 37.101562 132.074219 37.546875 131.984375 C 38.011719 131.882812 38.484375 131.804688 38.960938 131.75 C 39.347656 131.675781 39.734375 131.621094 40.125 131.582031 C 40.457031 131.558594 40.785156 131.503906 41.109375 131.417969 C 41.363281 131.355469 41.597656 131.230469 41.789062 131.050781 C 41.972656 130.84375 42.0625 130.574219 42.039062 130.300781 C 42.050781 130.042969 41.972656 129.792969 41.824219 129.582031 C 41.691406 129.398438 41.511719 129.25 41.308594 129.148438 C 41.105469 129.0625 40.894531 129.007812 40.675781 128.984375 L 39.960938 128.984375 C 39.410156 128.960938 38.867188 129.101562 38.394531 129.382812 C 37.976562 129.65625 37.714844 130.117188 37.695312 130.617188 L 35.378906 130.617188 C 35.390625 130.027344 35.558594 129.453125 35.863281 128.949219 C 36.132812 128.523438 36.5 128.164062 36.929688 127.898438 C 37.378906 127.628906 37.875 127.441406 38.394531 127.347656 C 38.941406 127.238281 39.5 127.183594 40.058594 127.179688 C 40.5625 127.183594 41.066406 127.238281 41.558594 127.347656 C 42.023438 127.445312 42.46875 127.621094 42.875 127.867188 C 43.257812 128.09375 43.582031 128.40625 43.820312 128.78125 C 44.070312 129.199219 44.191406 129.679688 44.171875 130.167969 Z M 41.890625 132.550781 C 41.507812 132.785156 41.074219 132.925781 40.625 132.953125 C 40.125 132.953125 39.621094 133.023438 39.109375 133.167969 C 38.875 133.207031 38.640625 133.261719 38.410156 133.335938 C 38.195312 133.402344 37.992188 133.503906 37.8125 133.636719 C 37.640625 133.765625 37.5 133.9375 37.410156 134.136719 C 37.304688 134.371094 37.253906 134.628906 37.261719 134.886719 C 37.253906 135.117188 37.332031 135.339844 37.480469 135.519531 C 37.628906 135.6875 37.808594 135.824219 38.011719 135.917969 C 38.226562 136.023438 38.457031 136.097656 38.695312 136.136719 C 38.914062 136.152344 39.136719 136.152344 39.359375 136.136719 C 39.636719 136.132812 39.910156 136.101562 40.175781 136.035156 C 40.46875 135.972656 40.75 135.859375 41.007812 135.703125 C 41.265625 135.550781 41.484375 135.34375 41.65625 135.101562 C 41.839844 134.835938 41.929688 134.523438 41.925781 134.203125 Z M 41.890625 132.550781 "/>
<path style=" stroke:none;fill-rule:nonzero;fill:rgb(52.941176%,52.941176%,52.941176%);fill-opacity:1;" d="M 48.25 123.496094 L 50.515625 123.496094 L 50.515625 137.703125 L 48.25 137.703125 Z M 48.25 123.496094 "/>
<path style=" stroke:none;fill-rule:nonzero;fill:rgb(52.941176%,52.941176%,52.941176%);fill-opacity:1;" d="M 53.546875 127.433594 L 55.210938 127.433594 L 55.210938 124.347656 L 57.476562 124.347656 L 57.476562 127.433594 L 59.523438 127.433594 L 59.523438 129.097656 L 57.507812 129.097656 L 57.507812 134.585938 C 57.496094 134.792969 57.496094 134.996094 57.507812 135.203125 C 57.523438 135.355469 57.566406 135.503906 57.640625 135.636719 C 57.71875 135.761719 57.835938 135.855469 57.972656 135.902344 C 58.167969 135.96875 58.371094 135.996094 58.574219 135.988281 L 59.054688 135.988281 C 59.21875 136.003906 59.378906 136.003906 59.539062 135.988281 L 59.539062 137.738281 L 58.074219 137.738281 C 57.585938 137.753906 57.097656 137.695312 56.625 137.570312 C 56.304688 137.480469 56.011719 137.308594 55.777344 137.070312 C 55.5625 136.835938 55.417969 136.546875 55.359375 136.238281 C 55.28125 135.863281 55.238281 135.484375 55.226562 135.101562 L 55.226562 129.117188 L 53.5625 129.117188 Z M 53.546875 127.433594 "/>
<path style=" stroke:none;fill-rule:nonzero;fill:rgb(52.941176%,52.941176%,52.941176%);fill-opacity:1;" d="M 62.785156 123.496094 L 65.050781 123.496094 L 65.050781 128.765625 C 65.359375 128.273438 65.789062 127.871094 66.300781 127.597656 C 66.859375 127.285156 67.488281 127.125 68.128906 127.132812 C 69.097656 127.078125 70.050781 127.394531 70.792969 128.015625 C 71.488281 128.707031 71.839844 129.671875 71.761719 130.648438 L 71.761719 137.71875 L 69.527344 137.71875 L 69.527344 131.25 C 69.550781 130.617188 69.359375 129.992188 68.980469 129.484375 C 68.585938 129.085938 68.039062 128.882812 67.480469 128.933594 C 67.125 128.929688 66.773438 129.003906 66.449219 129.148438 C 66.148438 129.285156 65.882812 129.484375 65.667969 129.734375 C 65.449219 129.988281 65.277344 130.28125 65.167969 130.601562 C 65.046875 130.9375 64.984375 131.292969 64.984375 131.652344 L 64.984375 137.71875 L 62.785156 137.71875 Z M 62.785156 123.496094 "/>
<path style=" stroke:none;fill-rule:nonzero;fill:rgb(52.941176%,52.941176%,52.941176%);fill-opacity:1;" d="M 84.832031 132.984375 C 84.820312 133.460938 84.917969 133.933594 85.113281 134.367188 C 85.292969 134.746094 85.558594 135.074219 85.894531 135.320312 C 86.242188 135.570312 86.632812 135.75 87.042969 135.851562 C 87.5 135.96875 87.972656 136.023438 88.445312 136.019531 C 88.917969 136.03125 89.386719 135.972656 89.84375 135.835938 C 90.179688 135.734375 90.496094 135.570312 90.773438 135.351562 C 91 135.171875 91.175781 134.9375 91.289062 134.667969 C 91.398438 134.421875 91.453125 134.15625 91.457031 133.886719 C 91.496094 133.453125 91.363281 133.023438 91.089844 132.683594 C 90.871094 132.441406 90.597656 132.253906 90.292969 132.132812 C 89.714844 131.925781 89.125 131.746094 88.527344 131.601562 L 86.046875 130.949219 C 85.511719 130.820312 85 130.605469 84.53125 130.316406 C 84.160156 130.089844 83.832031 129.792969 83.566406 129.449219 C 83.335938 129.144531 83.167969 128.800781 83.066406 128.433594 C 82.964844 128.074219 82.914062 127.703125 82.914062 127.332031 C 82.898438 126.679688 83.054688 126.035156 83.363281 125.464844 C 83.65625 124.949219 84.0625 124.503906 84.546875 124.164062 C 85.050781 123.808594 85.617188 123.550781 86.210938 123.394531 C 86.824219 123.230469 87.457031 123.148438 88.09375 123.144531 C 88.804688 123.140625 89.507812 123.234375 90.191406 123.429688 C 90.792969 123.613281 91.359375 123.910156 91.855469 124.296875 C 92.914062 125.078125 93.53125 126.316406 93.523438 127.632812 L 91.039062 127.632812 C 91.050781 126.875 90.707031 126.160156 90.109375 125.699219 C 89.472656 125.296875 88.726562 125.097656 87.976562 125.128906 C 87.675781 125.128906 87.375 125.15625 87.078125 125.214844 C 86.785156 125.269531 86.503906 125.371094 86.246094 125.515625 C 85.992188 125.648438 85.777344 125.84375 85.613281 126.082031 C 85.1875 126.738281 85.277344 127.609375 85.828125 128.164062 C 86.179688 128.472656 86.59375 128.695312 87.042969 128.816406 L 87.675781 128.984375 L 88.894531 129.316406 L 90.207031 129.667969 L 91.140625 129.917969 C 91.574219 130.046875 91.988281 130.25 92.355469 130.515625 C 92.6875 130.757812 92.980469 131.050781 93.222656 131.382812 C 93.449219 131.703125 93.625 132.058594 93.738281 132.433594 C 93.875 132.824219 93.949219 133.238281 93.953125 133.652344 C 93.976562 134.359375 93.808594 135.0625 93.472656 135.6875 C 93.15625 136.238281 92.71875 136.714844 92.191406 137.070312 C 91.636719 137.4375 91.019531 137.703125 90.375 137.855469 C 89.699219 138.019531 89.007812 138.105469 88.308594 138.105469 C 87.539062 138.109375 86.773438 138.007812 86.027344 137.804688 C 85.351562 137.625 84.71875 137.3125 84.164062 136.886719 C 83.625 136.464844 83.195312 135.921875 82.898438 135.300781 C 82.523438 134.585938 82.320312 133.792969 82.300781 132.984375 Z M 84.832031 132.984375 "/>
<path style=" stroke:none;fill-rule:nonzero;fill:rgb(52.941176%,52.941176%,52.941176%);fill-opacity:1;" d="M 102.0625 137.988281 C 101.3125 138.003906 100.5625 137.867188 99.863281 137.585938 C 99.234375 137.339844 98.667969 136.957031 98.199219 136.46875 C 97.75 135.988281 97.40625 135.421875 97.183594 134.800781 C 96.722656 133.335938 96.757812 131.761719 97.285156 130.316406 C 97.503906 129.695312 97.851562 129.128906 98.300781 128.648438 C 98.769531 128.160156 99.335938 127.78125 99.964844 127.53125 C 101.378906 126.984375 102.945312 126.984375 104.359375 127.53125 C 104.988281 127.78125 105.558594 128.160156 106.027344 128.648438 C 106.472656 129.128906 106.820312 129.695312 107.042969 130.316406 C 107.503906 131.730469 107.503906 133.253906 107.042969 134.667969 C 106.820312 135.289062 106.472656 135.855469 106.027344 136.335938 C 105.558594 136.824219 104.988281 137.207031 104.359375 137.453125 C 103.640625 137.792969 102.859375 137.972656 102.0625 137.988281 Z M 102.0625 136.203125 C 102.523438 136.214844 102.976562 136.105469 103.378906 135.886719 C 103.742188 135.679688 104.054688 135.394531 104.292969 135.050781 C 104.539062 134.699219 104.71875 134.304688 104.828125 133.886719 C 105.050781 133.019531 105.050781 132.113281 104.828125 131.25 C 104.722656 130.832031 104.542969 130.4375 104.292969 130.082031 C 104.054688 129.742188 103.742188 129.457031 103.378906 129.25 C 102.554688 128.820312 101.574219 128.820312 100.746094 129.25 C 100.382812 129.457031 100.070312 129.742188 99.832031 130.082031 C 99.585938 130.4375 99.402344 130.832031 99.300781 131.25 C 99.074219 132.113281 99.074219 133.019531 99.300781 133.886719 C 99.40625 134.304688 99.585938 134.699219 99.832031 135.050781 C 100.070312 135.394531 100.382812 135.679688 100.746094 135.886719 C 101.148438 136.105469 101.605469 136.214844 102.0625 136.203125 Z M 102.0625 136.203125 "/>
<path style=" stroke:none;fill-rule:nonzero;fill:rgb(52.941176%,52.941176%,52.941176%);fill-opacity:1;" d="M 110.789062 123.496094 L 113.050781 123.496094 L 113.050781 137.703125 L 110.789062 137.703125 Z M 110.789062 123.496094 "/>
<path style=" stroke:none;fill-rule:nonzero;fill:rgb(52.941176%,52.941176%,52.941176%);fill-opacity:1;" d="M 126.121094 137.71875 L 123.925781 137.71875 L 123.925781 136.285156 C 123.636719 136.816406 123.203125 137.25 122.675781 137.539062 C 122.171875 137.835938 121.597656 137.996094 121.011719 138.003906 C 119.9375 138.105469 118.871094 137.742188 118.078125 137.003906 C 117.417969 136.136719 117.097656 135.058594 117.179688 133.96875 L 117.179688 127.433594 L 119.445312 127.433594 L 119.445312 133.652344 C 119.375 134.332031 119.558594 135.015625 119.960938 135.570312 C 120.34375 135.953125 120.871094 136.152344 121.410156 136.121094 C 121.820312 136.136719 122.230469 136.0625 122.609375 135.902344 C 122.910156 135.773438 123.179688 135.574219 123.390625 135.320312 C 123.597656 135.058594 123.746094 134.757812 123.824219 134.433594 C 123.914062 134.070312 123.957031 133.695312 123.957031 133.316406 L 123.957031 127.433594 L 126.222656 127.433594 Z M 126.121094 137.71875 "/>
<path style=" stroke:none;fill-rule:nonzero;fill:rgb(52.941176%,52.941176%,52.941176%);fill-opacity:1;" d="M 129.070312 127.433594 L 130.734375 127.433594 L 130.734375 124.347656 L 132.996094 124.347656 L 132.996094 127.433594 L 135.078125 127.433594 L 135.078125 129.097656 L 133.03125 129.097656 L 133.03125 134.585938 C 133.019531 134.792969 133.019531 134.996094 133.03125 135.203125 C 133.042969 135.355469 133.089844 135.503906 133.164062 135.636719 C 133.242188 135.761719 133.359375 135.855469 133.496094 135.902344 C 133.691406 135.96875 133.894531 135.996094 134.097656 135.988281 L 134.578125 135.988281 C 134.742188 136.003906 134.902344 136.003906 135.0625 135.988281 L 135.0625 137.738281 L 133.597656 137.738281 C 133.109375 137.753906 132.621094 137.695312 132.148438 137.570312 C 131.828125 137.480469 131.535156 137.308594 131.300781 137.070312 C 131.085938 136.835938 130.941406 136.546875 130.882812 136.238281 C 130.804688 135.863281 130.761719 135.484375 130.75 135.101562 L 130.75 129.117188 L 129.085938 129.117188 Z M 129.070312 127.433594 "/>
<path style=" stroke:none;fill-rule:nonzero;fill:rgb(52.941176%,52.941176%,52.941176%);fill-opacity:1;" d="M 138.359375 123.496094 L 140.574219 123.496094 L 140.574219 125.648438 L 138.359375 125.648438 Z M 138.359375 127.414062 L 140.574219 127.414062 L 140.574219 137.703125 L 138.359375 137.703125 Z M 138.359375 127.414062 "/>
<path style=" stroke:none;fill-rule:nonzero;fill:rgb(52.941176%,52.941176%,52.941176%);fill-opacity:1;" d="M 149.382812 137.988281 C 148.644531 137.996094 147.917969 137.859375 147.234375 137.585938 C 146.605469 137.339844 146.035156 136.957031 145.570312 136.46875 C 145.121094 135.988281 144.773438 135.421875 144.554688 134.800781 C 144.089844 133.386719 144.089844 131.863281 144.554688 130.449219 C 144.757812 129.78125 145.101562 129.167969 145.570312 128.648438 C 146.035156 128.160156 146.605469 127.78125 147.234375 127.53125 C 148.648438 126.984375 150.214844 126.984375 151.628906 127.53125 C 152.257812 127.78125 152.824219 128.160156 153.292969 128.648438 C 153.742188 129.128906 154.089844 129.695312 154.308594 130.316406 C 154.773438 131.730469 154.773438 133.253906 154.308594 134.667969 C 154.089844 135.289062 153.742188 135.855469 153.292969 136.335938 C 152.824219 136.824219 152.257812 137.207031 151.628906 137.453125 C 150.925781 137.785156 150.160156 137.96875 149.382812 137.988281 Z M 149.382812 136.203125 C 149.839844 136.214844 150.292969 136.105469 150.695312 135.886719 C 151.0625 135.679688 151.375 135.394531 151.613281 135.050781 C 151.859375 134.699219 152.039062 134.304688 152.144531 133.886719 C 152.371094 133.019531 152.371094 132.113281 152.144531 131.25 C 152.039062 130.832031 151.859375 130.4375 151.613281 130.082031 C 151.371094 129.742188 151.058594 129.457031 150.695312 129.25 C 149.871094 128.820312 148.890625 128.820312 148.066406 129.25 C 147.703125 129.457031 147.390625 129.742188 147.148438 130.082031 C 146.902344 130.4375 146.722656 130.832031 146.617188 131.25 C 146.390625 132.113281 146.390625 133.019531 146.617188 133.886719 C 146.722656 134.304688 146.90625 134.699219 147.148438 135.050781 C 147.390625 135.394531 147.703125 135.679688 148.066406 135.886719 C 148.46875 136.105469 148.921875 136.214844 149.382812 136.203125 Z M 149.382812 136.203125 "/>
<path style=" stroke:none;fill-rule:nonzero;fill:rgb(52.941176%,52.941176%,52.941176%);fill-opacity:1;" d="M 158.054688 127.433594 L 160.203125 127.433594 L 160.203125 128.949219 C 160.53125 128.390625 160.996094 127.925781 161.550781 127.597656 C 162.113281 127.273438 162.753906 127.105469 163.402344 127.113281 C 164.367188 127.0625 165.320312 127.378906 166.0625 128 C 166.757812 128.691406 167.109375 129.65625 167.03125 130.632812 L 167.03125 137.703125 L 164.765625 137.703125 L 164.765625 131.25 C 164.796875 130.621094 164.617188 129.996094 164.25 129.484375 C 163.855469 129.085938 163.308594 128.882812 162.75 128.933594 C 162.394531 128.929688 162.042969 129.003906 161.71875 129.148438 C 161.417969 129.285156 161.152344 129.484375 160.9375 129.734375 C 160.71875 129.988281 160.546875 130.28125 160.4375 130.601562 C 160.316406 130.9375 160.253906 131.292969 160.253906 131.652344 L 160.253906 137.71875 L 158.054688 137.71875 Z M 158.054688 127.433594 "/>
<path style=" stroke:none;fill-rule:nonzero;fill:rgb(52.941176%,52.941176%,52.941176%);fill-opacity:1;" d="M 172.757812 134.402344 C 172.753906 134.964844 173.035156 135.492188 173.507812 135.804688 C 173.980469 136.078125 174.523438 136.21875 175.070312 136.203125 L 175.804688 136.203125 C 176.066406 136.175781 176.324219 136.113281 176.570312 136.019531 C 176.796875 135.933594 176.996094 135.789062 177.152344 135.601562 C 177.3125 135.40625 177.390625 135.15625 177.371094 134.902344 C 177.367188 134.628906 177.25 134.371094 177.054688 134.183594 C 176.832031 133.984375 176.570312 133.832031 176.289062 133.734375 C 175.941406 133.613281 175.582031 133.519531 175.222656 133.453125 L 174.007812 133.183594 C 173.59375 133.097656 173.191406 132.984375 172.789062 132.851562 C 172.417969 132.726562 172.0625 132.546875 171.742188 132.316406 C 171.429688 132.089844 171.171875 131.792969 170.992188 131.449219 C 170.792969 131.046875 170.695312 130.601562 170.710938 130.148438 C 170.691406 129.652344 170.832031 129.160156 171.109375 128.75 C 171.382812 128.371094 171.734375 128.058594 172.140625 127.832031 C 172.578125 127.59375 173.050781 127.429688 173.539062 127.347656 C 174.023438 127.261719 174.515625 127.214844 175.003906 127.214844 C 175.515625 127.210938 176.023438 127.269531 176.519531 127.382812 C 176.988281 127.488281 177.433594 127.671875 177.835938 127.933594 C 178.226562 128.1875 178.554688 128.519531 178.800781 128.914062 C 179.074219 129.359375 179.242188 129.863281 179.285156 130.382812 L 176.921875 130.382812 C 176.867188 129.914062 176.585938 129.5 176.171875 129.28125 C 175.75 129.089844 175.289062 128.992188 174.820312 129 L 174.257812 129 C 174.046875 129.023438 173.839844 129.074219 173.640625 129.148438 C 173.457031 129.21875 173.292969 129.324219 173.15625 129.464844 C 173.019531 129.617188 172.949219 129.8125 172.957031 130.015625 C 172.945312 130.273438 173.050781 130.527344 173.242188 130.699219 C 173.460938 130.890625 173.714844 131.039062 173.988281 131.132812 C 174.335938 131.253906 174.695312 131.347656 175.054688 131.417969 L 176.289062 131.683594 C 176.699219 131.773438 177.105469 131.886719 177.503906 132.015625 C 177.882812 132.140625 178.242188 132.320312 178.566406 132.550781 C 179.261719 133.035156 179.65625 133.839844 179.617188 134.6875 C 179.636719 135.234375 179.492188 135.773438 179.199219 136.238281 C 178.921875 136.660156 178.554688 137.011719 178.117188 137.269531 C 177.660156 137.542969 177.160156 137.738281 176.636719 137.855469 C 176.089844 137.976562 175.53125 138.039062 174.972656 138.039062 C 174.367188 138.042969 173.761719 137.96875 173.175781 137.820312 C 172.660156 137.691406 172.171875 137.464844 171.742188 137.152344 C 171.34375 136.859375 171.019531 136.476562 170.792969 136.035156 C 170.550781 135.542969 170.425781 135 170.425781 134.453125 Z M 172.757812 134.402344 "/>
</g>
</svg>
