<?xml version="1.0" encoding="UTF-8" standalone="no"?>
<!DOCTYPE svg PUBLIC "-//W3C//DTD SVG 1.1//EN" "http://www.w3.org/Graphics/SVG/1.1/DTD/svg11.dtd">
<svg width="100%" height="100%" viewBox="0 0 533 200" version="1.1" xmlns="http://www.w3.org/2000/svg" xmlns:xlink="http://www.w3.org/1999/xlink" xml:space="preserve" xmlns:serif="http://www.serif.com/" style="fill-rule:evenodd;clip-rule:evenodd;stroke-linejoin:round;stroke-miterlimit:1.41421;">
    <g>
        <g transform="matrix(2.45773,0,0,2.45773,-39.7815,-146.255)">
            <path d="M186.819,73.565L174.391,73.565L174.391,76.168L174.923,76.196C176.808,76.327 177.936,76.649 178.31,77.162C178.683,77.676 178.87,79.182 178.87,81.683L178.87,96.182C178.87,98.683 178.683,100.189 178.31,100.702C177.936,101.216 176.808,101.538 174.923,101.668L174.391,101.696L174.391,104.299L190.598,104.299L190.598,101.696L190.07,101.668C188.551,101.575 187.629,101.258 187.305,100.716C186.981,100.175 186.819,98.664 186.819,96.182L186.819,82.69C187.864,81.086 188.993,79.887 190.206,79.093C191.419,78.301 192.715,77.904 194.097,77.904C195.309,77.904 196.214,78.375 196.812,79.317C197.409,80.26 197.707,81.673 197.707,83.558L197.707,96.182C197.707,98.701 197.554,100.222 197.249,100.744C196.943,101.267 196.013,101.575 194.456,101.668L193.929,101.696L193.929,104.299L209.435,104.299L209.435,101.696L208.932,101.668C207.382,101.575 206.45,101.258 206.132,100.716C205.815,100.175 205.657,98.664 205.657,96.182L205.657,82.774C206.742,81.142 207.892,79.922 209.108,79.114C210.324,78.308 211.606,77.904 212.953,77.904C215.348,77.904 216.545,79.782 216.545,83.539L216.545,96.182C216.545,98.683 216.392,100.198 216.087,100.73C215.781,101.262 214.85,101.575 213.294,101.668L212.766,101.696L212.766,104.299L228.973,104.299L228.973,101.696L228.469,101.668C226.566,101.538 225.427,101.216 225.054,100.702C224.681,100.189 224.494,98.683 224.494,96.182L224.494,81.683C224.494,75.805 221.784,72.866 216.365,72.866C214.515,72.866 212.665,73.407 210.815,74.489C208.965,75.571 207.124,77.195 205.293,79.359C204.901,77.195 204.047,75.571 202.732,74.489C201.416,73.407 199.639,72.866 197.399,72.866C195.384,72.866 193.495,73.407 191.731,74.489C189.968,75.571 188.33,77.195 186.819,79.359L186.819,73.565ZM138.251,104.635L147.228,83.026L155.597,104.635L158.162,104.635L166.663,81.656C167.58,79.174 168.29,77.667 168.794,77.135C169.298,76.603 170.334,76.291 171.901,76.197L172.405,76.169L172.405,73.566L161.153,73.566L161.153,76.169L161.691,76.169C163.836,76.169 164.91,76.599 164.91,77.458C164.91,77.906 164.63,78.84 164.07,80.258C163.732,81.136 163.536,81.649 163.48,81.797L158.928,94.083L150.927,73.734L147.915,73.734L139.614,94.083L135.323,81.597C134.595,79.49 134.232,78.044 134.232,77.261C134.232,76.533 135.323,76.169 137.506,76.169L138.038,76.169L138.038,73.566L121.966,73.566L121.966,76.169L122.498,76.197C123.879,76.291 124.811,76.603 125.297,77.135C125.782,77.667 126.51,79.192 127.48,81.712L135.521,104.636L138.251,104.636L138.251,104.635ZM99.182,82.242C100.301,80.899 101.449,79.891 102.624,79.219C103.8,78.548 104.994,78.212 106.207,78.212C108.279,78.212 109.827,79.112 110.854,80.913C111.88,82.714 112.393,85.424 112.393,89.044C112.393,93.038 111.81,96.037 110.644,98.043C109.477,100.049 107.728,101.052 105.395,101.052C104.444,101.052 103.45,100.805 102.415,100.31C101.379,99.816 100.301,99.074 99.182,98.085L99.182,82.242ZM97.978,104.299L99.182,101.193C100.488,102.462 101.887,103.414 103.38,104.047C104.873,104.681 106.468,104.999 108.167,104.999C112.122,104.999 115.285,103.473 117.655,100.422C120.025,97.371 121.21,93.29 121.21,88.176C121.21,83.493 120.161,79.77 118.061,77.008C115.962,74.247 113.139,72.866 109.594,72.866C107.299,72.866 105.284,73.407 103.548,74.489C101.813,75.571 100.357,77.195 99.182,79.359L99.182,60.102L86.417,60.102L86.417,62.705L86.949,62.761C88.833,62.872 89.962,63.188 90.336,63.707C90.709,64.227 90.895,65.732 90.895,68.219L90.895,104.299L97.978,104.299Z" style="fill:white;fill-rule:nonzero;"/>
        </g>
        <g transform="matrix(2.45773,0,0,2.45773,-39.7815,-146.255)">
            <path d="M228.952,130.862L223.457,130.862L223.457,132.592L226.826,132.592L226.826,137.571C226.33,137.819 225.364,138.017 223.952,138.017C220.038,138.017 217.511,135.515 217.511,131.281C217.511,127.095 220.162,124.567 224.225,124.567C225.909,124.567 227.024,124.865 227.914,125.287L228.458,123.53C227.741,123.183 226.207,122.763 224.274,122.763C218.676,122.763 215.236,126.401 215.236,131.38C215.236,133.979 216.126,136.209 217.561,137.596C219.196,139.155 221.277,139.797 223.804,139.797C226.058,139.797 227.988,139.253 228.952,138.883L228.952,130.862ZM199.805,139.626L199.805,132.494C199.805,129.72 199.78,127.714 199.657,125.608L199.731,125.585C200.548,127.392 201.663,129.299 202.828,131.156L208.129,139.626L210.305,139.626L210.305,122.938L208.278,122.938L208.278,129.918C208.278,132.522 208.327,134.552 208.525,136.78L208.451,136.805C207.683,135.096 206.692,133.338 205.478,131.382L200.152,122.937L197.778,122.937L197.778,139.625L199.805,139.625L199.805,139.626ZM189.68,139.626L191.856,139.626L191.856,122.938L189.68,122.938L189.68,139.626ZM178.412,139.626L180.588,139.626L180.588,124.767L185.69,124.767L185.69,122.938L173.336,122.938L173.336,124.767L178.412,124.767L178.412,139.626ZM160.037,138.811C160.928,139.404 162.684,139.898 164.295,139.898C168.234,139.898 170.113,137.648 170.113,135.072C170.113,132.62 168.704,131.258 165.88,130.168C163.576,129.276 162.56,128.509 162.56,126.947C162.56,125.808 163.427,124.446 165.707,124.446C167.218,124.446 168.333,124.917 168.852,125.238L169.446,123.483C168.728,123.061 167.466,122.667 165.781,122.667C162.535,122.667 160.384,124.595 160.384,127.195C160.384,129.523 162.066,130.961 164.79,131.951C167.045,132.794 167.937,133.71 167.937,135.245C167.937,136.931 166.649,138.095 164.443,138.095C162.957,138.095 161.571,137.624 160.606,137.005L160.037,138.811ZM155.155,130.021L148.691,130.021L148.691,124.743L155.551,124.743L155.551,122.938L146.515,122.938L146.515,139.626L155.923,139.626L155.923,137.82L148.691,137.82L148.691,131.8L155.155,131.8L155.155,130.021ZM136.608,139.626L142.575,122.938L140.272,122.938L137.45,131.183C136.682,133.364 136.014,135.469 135.543,137.4L135.494,137.4C135.023,135.444 134.404,133.414 133.711,131.16L131.111,122.938L128.759,122.938L134.231,139.626L136.608,139.626ZM114.146,139.626L114.146,132.494C114.146,129.72 114.121,127.714 113.997,125.608L114.071,125.585C114.889,127.392 116.004,129.299 117.168,131.156L122.469,139.626L124.646,139.626L124.646,122.938L122.618,122.938L122.618,129.918C122.618,132.522 122.667,134.552 122.865,136.78L122.791,136.805C122.023,135.096 121.033,133.338 119.819,131.382L114.492,122.937L112.118,122.937L112.118,139.625L114.146,139.625L114.146,139.626ZM104.021,139.626L106.197,139.626L106.197,122.938L104.021,122.938L104.021,139.626ZM90.422,130.021L83.958,130.021L83.958,124.743L90.818,124.743L90.818,122.938L81.782,122.938L81.782,139.626L91.19,139.626L91.19,137.82L83.958,137.82L83.958,131.8L90.422,131.8L90.422,130.021ZM63.606,122.938L63.606,132.769C63.606,137.97 66.178,139.898 69.597,139.898C73.214,139.898 75.91,137.821 75.91,132.695L75.91,122.938L73.734,122.938L73.734,132.844C73.734,136.509 72.124,138.143 69.671,138.143C67.442,138.143 65.782,136.558 65.782,132.844L65.782,122.938L63.606,122.938ZM50.654,139.626L59.963,139.626L59.963,137.82L52.83,137.82L52.83,122.937L50.654,122.937L50.654,139.626ZM36.514,132.694L38.148,127.865C38.495,126.847 38.742,125.807 38.99,124.842L39.039,124.842C39.287,125.808 39.534,126.799 39.906,127.889L41.565,132.695L36.514,132.695L36.514,132.694ZM41.985,134.376L43.767,139.626L46.07,139.626L40.375,122.938L37.8,122.938L32.106,139.626L34.334,139.626L36.067,134.376L41.985,134.376ZM24.849,139.626L30.816,122.938L28.513,122.938L25.691,131.183C24.923,133.364 24.255,135.469 23.784,137.4L23.735,137.4C23.264,135.444 22.645,133.414 21.952,131.16L19.353,122.938L17,122.938L22.471,139.626L24.849,139.626Z" style="fill:white;fill-rule:nonzero;"/>
        </g>
    </g>
</svg>
