<?xml version="1.0" encoding="UTF-8"?>
<svg xmlns="http://www.w3.org/2000/svg" xmlns:xlink="http://www.w3.org/1999/xlink" width="px" height="200px" viewBox="0 0 328 200" version="1.1">
<g id="surface1">
<path style=" stroke:none;fill-rule:nonzero;fill:rgb(49.803922%,49.803922%,49.803922%);fill-opacity:1;" d="M 184.976562 53.164062 C 184.976562 53.164062 153.574219 52.164062 153.5 52.160156 C 144.390625 51.902344 119.003906 50.367188 119.003906 30.757812 C 119.003906 9.332031 152.195312 7.878906 155.375 7.492188 C 157.964844 7.175781 162.796875 6.6875 169.414062 6.246094 L 172.925781 0.101562 C 167.800781 0.0351562 162.28125 0 156.335938 0 C 90.621094 0 0 20.277344 0 32.074219 C 0 43.515625 65.644531 57.898438 151.769531 59.472656 C 151.769531 59.472656 183.207031 60.472656 183.246094 60.472656 C 192.355469 60.730469 217.722656 62.265625 217.722656 81.875 C 217.722656 103.296875 184.546875 104.753906 181.371094 105.140625 C 178.460938 105.496094 172.722656 106.066406 164.804688 106.546875 L 161.402344 112.5 C 167.199219 112.585938 173.519531 112.632812 180.410156 112.632812 C 246.125 112.632812 328 93.679688 328 81.886719 C 328 70.445312 271.101562 54.734375 184.976562 53.164062 Z M 184.976562 53.164062 "/>
<path style=" stroke:none;fill-rule:nonzero;fill:rgb(49.803922%,49.803922%,49.803922%);fill-opacity:1;" d="M 327.257812 160.4375 C 325.398438 159.9375 323.660156 159.402344 321.882812 159.007812 C 313.949219 157.261719 305.933594 156.546875 297.800781 157.777344 C 293.917969 158.363281 290.269531 159.496094 287.121094 161.625 C 283.410156 164.128906 281.53125 167.5 281.0625 171.511719 C 280.757812 174.117188 280.957031 176.6875 281.9375 179.179688 C 283.515625 183.183594 286.761719 185.808594 291.140625 187.480469 C 295.226562 189.042969 299.546875 189.570312 303.957031 189.703125 C 310.609375 189.902344 317.0625 188.820312 323.4375 187.296875 C 324.933594 186.9375 326.402344 186.5 327.949219 186.082031 C 327.960938 186.28125 327.984375 186.460938 327.984375 186.648438 C 327.984375 189.101562 327.972656 191.558594 328 194.011719 C 328.003906 194.460938 327.8125 194.648438 327.363281 194.8125 C 324.113281 195.980469 320.707031 196.636719 317.261719 197.160156 C 312.382812 197.902344 307.46875 198.324219 302.511719 198.21875 C 296.839844 198.09375 291.300781 197.332031 286.050781 195.363281 C 280.046875 193.113281 275.28125 189.664062 272.347656 184.5 C 270.699219 181.601562 269.90625 178.511719 269.660156 175.292969 C 269.410156 171.957031 269.800781 168.695312 271.011719 165.519531 C 272.824219 160.785156 276.269531 157.132812 280.980469 154.363281 C 285.902344 151.464844 291.402344 149.867188 297.253906 149.167969 C 306.773438 148.03125 316.121094 148.933594 325.335938 151.144531 C 327.261719 151.605469 327.257812 151.625 327.257812 153.351562 Z M 327.257812 160.4375 "/>
<path style=" stroke:none;fill-rule:evenodd;fill:rgb(49.803922%,49.803922%,49.803922%);fill-opacity:1;" d="M 255.363281 198.222656 L 256.109375 198.222656 C 256.066406 198.136719 256.03125 198.0625 255.996094 197.992188 C 255.925781 197.84375 255.867188 197.722656 255.804688 197.605469 C 254.171875 194.597656 252.539062 191.589844 250.910156 188.585938 C 243.792969 175.472656 236.679688 162.363281 229.578125 149.25 C 229.347656 148.824219 229.085938 148.679688 228.558594 148.683594 C 224.496094 148.703125 220.433594 148.714844 216.375 148.675781 C 215.667969 148.671875 215.367188 148.886719 215.078125 149.421875 C 207.996094 162.53125 200.90625 175.636719 193.8125 188.738281 C 192.207031 191.703125 190.601562 194.671875 189 197.636719 C 188.941406 197.742188 188.886719 197.851562 188.824219 197.984375 C 188.792969 198.054688 188.753906 198.132812 188.710938 198.222656 L 189.433594 198.222656 C 190.316406 198.222656 191.203125 198.222656 192.085938 198.222656 C 194.679688 198.21875 197.273438 198.214844 199.867188 198.234375 C 200.410156 198.238281 200.648438 198.066406 200.867188 197.648438 C 201.832031 195.828125 202.804688 194.011719 203.777344 192.195312 C 204.6875 190.492188 205.601562 188.789062 206.503906 187.082031 C 206.714844 186.6875 206.957031 186.53125 207.460938 186.53125 C 217.449219 186.546875 227.433594 186.546875 237.421875 186.53125 C 237.960938 186.53125 238.199219 186.699219 238.425781 187.113281 C 239.351562 188.835938 240.285156 190.558594 241.21875 192.277344 C 242.191406 194.066406 243.164062 195.859375 244.128906 197.652344 C 244.351562 198.070312 244.589844 198.238281 245.128906 198.234375 C 247.671875 198.214844 250.21875 198.21875 252.761719 198.222656 C 253.628906 198.222656 254.496094 198.222656 255.363281 198.222656 Z M 212.675781 175.078125 C 215.925781 168.914062 219.15625 162.773438 222.421875 156.574219 L 233.738281 177.957031 L 211.164062 177.957031 Z M 212.675781 175.078125 "/>
<path style=" stroke:none;fill-rule:nonzero;fill:rgb(49.803922%,49.803922%,49.803922%);fill-opacity:1;" d="M 161.753906 198.234375 L 175.234375 198.234375 L 175.234375 148.675781 L 161.753906 148.675781 Z M 161.753906 198.234375 "/>
<path style=" stroke:none;fill-rule:evenodd;fill:rgb(49.803922%,49.803922%,49.803922%);fill-opacity:1;" d="M 142.992188 198.222656 L 143.78125 198.222656 C 143.675781 198.03125 143.574219 197.847656 143.476562 197.667969 C 143.214844 197.1875 142.972656 196.746094 142.734375 196.304688 C 141.910156 194.789062 141.085938 193.269531 140.265625 191.753906 C 132.597656 177.621094 124.933594 163.488281 117.28125 149.351562 C 117.011719 148.851562 116.703125 148.671875 116.070312 148.675781 C 112.011719 148.703125 107.953125 148.699219 103.890625 148.679688 C 103.355469 148.679688 103.0625 148.800781 102.816406 149.257812 C 95.214844 163.34375 87.597656 177.425781 79.984375 191.507812 C 78.878906 193.550781 77.773438 195.59375 76.667969 197.640625 C 76.609375 197.75 76.554688 197.863281 76.492188 197.996094 C 76.457031 198.066406 76.421875 198.140625 76.382812 198.222656 L 77.101562 198.222656 C 77.953125 198.222656 78.804688 198.222656 79.652344 198.21875 C 82.277344 198.21875 84.90625 198.214844 87.53125 198.234375 C 88.074219 198.238281 88.304688 198.066406 88.527344 197.648438 C 89.515625 195.78125 90.511719 193.917969 91.511719 192.050781 C 92.398438 190.398438 93.285156 188.742188 94.164062 187.085938 C 94.371094 186.6875 94.613281 186.53125 95.121094 186.53125 C 105.125 186.546875 115.128906 186.546875 125.132812 186.53125 C 125.613281 186.53125 125.839844 186.683594 126.039062 187.054688 C 126.917969 188.695312 127.808594 190.332031 128.695312 191.96875 C 129.71875 193.859375 130.746094 195.753906 131.761719 197.648438 C 131.984375 198.066406 132.222656 198.238281 132.765625 198.234375 C 135.339844 198.214844 137.914062 198.21875 140.488281 198.21875 C 141.324219 198.222656 142.15625 198.222656 142.992188 198.222656 Z M 121.371094 177.941406 L 98.820312 177.941406 C 102.582031 170.796875 106.304688 163.726562 110.070312 156.574219 Z M 121.371094 177.941406 "/>
<path style=" stroke:none;fill-rule:nonzero;fill:rgb(49.803922%,49.803922%,49.803922%);fill-opacity:1;" d="M 57.667969 160.4375 C 55.808594 159.9375 54.074219 159.402344 52.292969 159.007812 C 44.359375 157.261719 36.347656 156.546875 28.210938 157.777344 C 24.328125 158.363281 20.679688 159.496094 17.53125 161.625 C 13.824219 164.128906 11.941406 167.5 11.472656 171.511719 C 11.167969 174.117188 11.367188 176.6875 12.347656 179.179688 C 13.925781 183.183594 17.171875 185.808594 21.554688 187.480469 C 25.636719 189.042969 29.960938 189.570312 34.367188 189.703125 C 41.023438 189.902344 47.476562 188.820312 53.847656 187.296875 C 55.34375 186.9375 56.816406 186.5 58.359375 186.082031 C 58.375 186.28125 58.394531 186.460938 58.394531 186.648438 C 58.398438 189.101562 58.382812 191.558594 58.410156 194.011719 C 58.414062 194.460938 58.226562 194.648438 57.773438 194.8125 C 54.523438 195.980469 51.117188 196.636719 47.671875 197.160156 C 42.792969 197.902344 37.878906 198.324219 32.921875 198.21875 C 27.25 198.09375 21.710938 197.332031 16.460938 195.363281 C 10.460938 193.113281 5.695312 189.664062 2.757812 184.5 C 1.109375 181.601562 0.316406 178.511719 0.0742188 175.292969 C -0.179688 171.957031 0.210938 168.695312 1.425781 165.519531 C 3.234375 160.785156 6.683594 157.132812 11.390625 154.363281 C 16.3125 151.464844 21.816406 149.867188 27.664062 149.167969 C 37.1875 148.03125 46.53125 148.933594 55.746094 151.144531 C 57.675781 151.605469 57.667969 151.625 57.667969 153.351562 Z M 57.667969 160.4375 "/>
</g>
</svg>
