<?xml version="1.0" encoding="utf-8"?>
<!-- Generator: Adobe Illustrator 28.0.0, SVG Export Plug-In . SVG Version: 6.00 Build 0)  -->
<svg version="1.1" id="Ebene_1" xmlns="http://www.w3.org/2000/svg" xmlns:xlink="http://www.w3.org/1999/xlink" x="0px" y="0px"
	 viewBox="0 0 201.5 200" style="enable-background:new 0 0 201.5 200;" xml:space="preserve">
<style type="text/css">
	.st0{fill:#5599A0;}
</style>
<g id="surface1">
	<path class="st0" d="M138.2,90.1c0.1,0,0.1,0.1,0.2,0.1C138.4,90.1,138.4,90.1,138.2,90.1z"/>
	<path class="st0" d="M155,125.5c0.7,2.4,1.2,4.1,2.9,5.5c1.8,1.5,3.2,1,6.3,1.1c1.9,0.1,2.8,0.9,2.8,0.9
		C166.4,130.9,161.9,120.2,155,125.5z"/>
	<path class="st0" d="M175,44.4c1.2-1.5,2.1-2.5,2.3-4.2c0.2-1.8-0.8-2.5-2-4.6c-0.8-1.3-0.6-2.2-0.6-2.2
		C173.6,34.6,168.7,42.1,175,44.4z"/>
	<path class="st0" d="M133.2,17.2c1.2-1.5,2.1-2.5,2.3-4.2c0.2-1.8-0.8-2.5-2-4.6c-0.8-1.3-0.6-2.2-0.6-2.2
		C131.8,7.5,126.8,15,133.2,17.2z"/>
	<path class="st0" d="M106.9,29.3c1.2-1.5,2.1-2.5,2.3-4.2c0.2-1.8-0.8-2.5-2-4.6c-0.8-1.2-0.6-2.2-0.6-2.2
		C105.5,19.5,100.5,27,106.9,29.3z"/>
	<path class="st0" d="M107.5,43.9c-0.2,1.7,0.3,2.9,1.2,4.7c6.7-0.5,3.8-9.1,3.1-10.5c0,0-0.1,1-1.2,2
		C108.9,41.7,107.7,42.1,107.5,43.9L107.5,43.9z"/>
	<path class="st0" d="M120.7,58c-1.9,0.2-11.8,2.9-8,9.7c2.2-0.4,3.7-0.6,5.2-1.9c1.6-1.4,1.2-2.8,1.7-5.5
		C119.9,58.7,120.7,58,120.7,58L120.7,58z"/>
	<path class="st0" d="M110.4,80.8c2.2-0.4,3.7-0.6,5.2-1.9c1.6-1.4,1.2-2.8,1.7-5.5c0.3-1.7,1.1-2.4,1.1-2.4
		C116.6,71.3,106.6,74,110.4,80.8L110.4,80.8z"/>
	<path class="st0" d="M135.1,74.3c2.2-0.4,3.7-0.6,5.2-1.9c1.6-1.4,1.2-2.8,1.7-5.5c0.3-1.6,1.1-2.4,1.1-2.4
		C141.2,64.8,131.3,67.5,135.1,74.3L135.1,74.3z"/>
	<path class="st0" d="M83.4,81.8c0.8-2.1,1.3-3.6,0.8-5.4c-0.5-2-1.8-2.4-3.9-4.1c-1.3-1.1-1.6-2.1-1.6-2.1
		C78.1,71.9,75.7,81.9,83.4,81.8z"/>
	<path class="st0" d="M83.3,96.6c-0.5-2.2-0.8-3.7-2.2-5.1c-1.5-1.5-2.8-1.1-5.5-1.4c-1.7-0.2-2.4-1-2.4-1
		C73.5,91.1,76.8,100.9,83.3,96.6z"/>
	<path class="st0" d="M86.7,55.7c-0.1-2.1-1.4-2.7-3.2-4.7c-1.1-1.3-1.2-2.4-1.2-2.4c-1,1.6-5,11.1,2.6,12.3
		C86,58.9,86.8,57.6,86.7,55.7L86.7,55.7z"/>
	<path class="st0" d="M60,97.1c-0.7-2.1-1.2-3.6-2.7-4.8c-1.6-1.3-2.9-0.8-5.6-0.8c-1.7,0-2.5-0.7-2.5-0.7
		C49.7,92.6,54,101.9,60,97.1L60,97.1z"/>
	<path class="st0" d="M40.7,95.9c-0.7-2.1-1.2-3.6-2.7-4.8c-1.6-1.3-2.9-0.8-5.6-0.8c-1.7,0-2.5-0.7-2.5-0.7
		C30.3,91.4,34.6,100.8,40.7,95.9L40.7,95.9z"/>
	<path class="st0" d="M88.4,39.2c1.1-2,1.9-3.3,1.8-5.2c-0.1-2.1-1.4-2.7-3.2-4.7c-1.1-1.3-1.2-2.4-1.2-2.4
		C84.8,28.5,80.8,38,88.4,39.2L88.4,39.2z"/>
	<path class="st0" d="M49.6,35c1.1-2,1.9-3.3,1.8-5.2c-0.1-2.1-1.4-2.7-3.2-4.7C47,23.8,47,22.7,47,22.7C46,24.3,41.9,33.8,49.6,35
		L49.6,35L49.6,35z"/>
	<path class="st0" d="M49.1,125.2c-2.3,1.5-3.8,2.5-4.8,4.6c-1,2.3,0,3.7,0.8,6.9c0.5,2-0.1,3.2-0.1,3.2
		C47,138.6,56.6,130.8,49.1,125.2z"/>
	<path class="st0" d="M108.6,10.1c1.6-2,0.9-3.5,1-6.8c0-2,0.8-3.1,0.8-3.1c-2.2,0.7-13.5,5.9-7.6,13.2
		C105.3,12.5,107.1,11.9,108.6,10.1L108.6,10.1z"/>
	<path class="st0" d="M94,6c0.9,1.1,1.9,1.4,3.5,2c3.5-4.4-3.2-7.5-4.6-7.9c0,0,0.5,0.6,0.5,1.8C93.5,3.8,93.1,4.8,94,6z"/>
	<path class="st0" d="M109.3,106.5c2-0.3,3.4-0.5,4.7-1.7c1.4-1.3,1.1-2.5,1.6-5c0.3-1.5,1-2.2,1-2.2
		C114.9,97.9,105.9,100.4,109.3,106.5L109.3,106.5z"/>
	<path class="st0" d="M121.9,117.4c2-0.3,3.4-0.5,4.7-1.7c1.4-1.3,1.1-2.5,1.6-5c0.3-1.5,1-2.2,1-2.2
		C127.5,108.8,118.4,111.3,121.9,117.4L121.9,117.4z"/>
	<path class="st0" d="M136.3,112.7c-1.6,1.3-2,2.8-2.8,5c6.2,5,10.7-4.7,11.2-6.6c0,0-0.9,0.7-2.6,0.7
		C139.3,111.9,138,111.3,136.3,112.7z"/>
	<path class="st0" d="M32.9,115.4c0,0,0-0.1,0-0.1c-17.3-10.5-18.1,18.7-17.5,24.2c0.1-0.6,3.9-3.2,4.9-3.6c6-2.6,9.3-2.9,11.5-7.4
		c1.6-3.2,1.7-6.1,1.5-9.7c-4.5,2-7.2,4.3-12.8,11.1C24,122.1,30.4,116.6,32.9,115.4L32.9,115.4z"/>
	<path class="st0" d="M16.7,56.2c1.2,2.3,2.9,3.5,5.1,4.8c0.7-3.5,0.4-6.1-1.3-12.2c3.1,5.4,3.7,11.4,3.4,13.4c0,0,0.1,0,0.1,0
		c13.4-6-3.7-18.5-7.2-20.4c0.3,0.3,0.3,3.6,0.1,4.4C16.2,50.9,15,53,16.7,56.2z"/>
	<path class="st0" d="M51.9,107.9L51.9,107.9c-12-8.5-13.9,12.6-13.8,16.6c0.1-0.5,2.9-2.1,3.7-2.4c4.4-1.6,6.8-1.7,8.7-4.8
		c1.3-2.2,1.5-4.3,1.5-6.9c-3.3,1.2-5.4,2.7-9.8,7.4C45.2,112.3,50,108.6,51.9,107.9L51.9,107.9z"/>
	<path class="st0" d="M85.4,111C85.4,111,85.4,110.9,85.4,111c-13.9-4.8-9.8,16-8.6,19.8c0-0.5,2.2-2.9,2.9-3.3
		c3.8-2.8,6.1-3.5,7-7.1c0.6-2.5,0.3-4.6-0.5-7.1c-2.8,2.1-4.4,4.2-7.3,9.9C80.3,117.1,83.9,112.2,85.4,111L85.4,111z"/>
	<path class="st0" d="M109.1,124.9c-0.6,2-0.9,3.6-0.4,5.6c0.7,2.8,2.5,3.4,5.5,5.6c0.5,0.4,2.3,2.3,2.3,2.7c1-3,4.3-19.5-6.8-15.8
		c0,0,0,0.1,0,0.1c1.2,1,4.1,4.9,5.2,9.7C112.6,128.2,111.3,126.6,109.1,124.9L109.1,124.9z"/>
	<path class="st0" d="M54.1,22.7c1.1,2,2.6,3.1,4.5,4.3c0.6-3.1,0.4-5.4-1.1-10.8c2.7,4.7,3.3,10.1,3,11.8c0,0,0,0,0.1,0
		c11.8-5.3-3.2-16.3-6.3-18c0.3,0.3,0.3,3.2,0.1,3.9C53.6,18.1,52.6,19.9,54.1,22.7z"/>
	<path class="st0" d="M151.8,86.5C151.8,86.5,151.8,86.5,151.8,86.5c11.5,6.1,10.8-12.6,10.2-16c0,0.4-2.3,2.2-3,2.5
		c-3.7,1.9-5.8,2.2-7.1,5.2c-0.9,2.1-0.9,3.9-0.6,6.2c2.8-1.4,4.5-3,7.8-7.5C157.2,81.8,153.4,85.6,151.8,86.5L151.8,86.5z"/>
	<path class="st0" d="M188.1,86.5C188.1,86.5,188.1,86.4,188.1,86.5c0-1.8,1.3-7,4.6-11.4c-2.2,5.2-2.7,7.4-2.5,10.5
		c2.1-0.9,3.7-1.8,5-3.6c1.9-2.6,1.1-4.5,0.8-8.7c0-0.7,0.3-3.6,0.6-3.8C193.4,70.7,177.1,79.6,188.1,86.5z"/>
	<path class="st0" d="M28.1,41C28.1,41,28.1,41,28.1,41c0-1.8,1.3-7.1,4.6-11.4c-2.2,5.2-2.7,7.4-2.5,10.5c2.1-0.9,3.7-1.8,5-3.6
		c1.9-2.6,1.1-4.5,0.8-8.7c0-0.7,0.3-3.6,0.6-3.8C33.4,25.2,17.1,34.2,28.1,41z"/>
	<path class="st0" d="M9.3,113.2c-2.4,2-3.7,3.9-6,9c1-5.4,3.9-9.9,5.3-11c0,0,0,0,0-0.1c-12.4-3.6-8,14.6-6.7,17.9
		c0-0.4,1.9-2.6,2.4-3.1c3.2-2.6,5.2-3.3,5.9-6.5C10.5,117.2,10.1,115.4,9.3,113.2z"/>
	<path class="st0" d="M174.4,51.9c-0.9,2.1-0.9,3.9-0.6,6.2c2.8-1.4,4.5-3,7.8-7.5c-2,5.1-5.9,8.8-7.4,9.7c0,0,0,0.1,0,0.1
		c11.4,6,10.8-12.6,10.2-16.1c0,0.4-2.3,2.2-3,2.5C177.7,48.6,175.7,48.9,174.4,51.9L174.4,51.9z"/>
	<path class="st0" d="M156.4,28.9c1.1,1.8,2.4,2.7,4.2,3.7c0.4-2.8,0.2-4.9-1.4-9.7c2.6,4.2,3.3,9,3.1,10.6c0,0,0,0,0.1,0
		c10.5-5.2-3.5-14.6-6.3-16.1c0.3,0.2,0.3,2.9,0.2,3.5C155.9,24.7,155,26.4,156.4,28.9L156.4,28.9z"/>
	<path class="st0" d="M201.3,106.5c0,0.4-2.3,2.2-3,2.5c-3.7,1.9-5.8,2.2-7.1,5.2c-0.9,2.1-0.9,3.9-0.6,6.2c2.8-1.4,4.5-3,7.8-7.5
		c-2,5.1-5.9,8.8-7.4,9.7c0,0,0,0.1,0,0.1C202.5,128.6,201.8,110,201.3,106.5L201.3,106.5z"/>
	<path class="st0" d="M11.5,93.4C11.5,93.4,11.5,93.4,11.5,93.4c-1.5-0.9-5.4-4.7-7.4-9.8c3.3,4.5,5,6.1,7.8,7.5
		c0.3-2.3,0.3-4.1-0.6-6.2c-1.3-3-3.3-3.2-7.1-5.2c-0.6-0.3-2.9-2.1-3-2.5C0.7,80.8,0,99.5,11.5,93.4L11.5,93.4z"/>
	<path class="st0" d="M39.5,83.2c11.8-5.3-3.2-16.3-6.3-18c0.3,0.3,0.3,3.2,0.1,3.9c-0.8,4.1-1.8,5.9-0.3,8.8c1.1,2,2.6,3.1,4.5,4.3
		c0.6-3.1,0.4-5.4-1.1-10.8C39.1,76,39.7,81.4,39.5,83.2C39.5,83.2,39.5,83.2,39.5,83.2z"/>
	<path class="st0" d="M90.2,67.4c1.1,2,2.6,3.1,4.5,4.3c0.6-3.1,0.4-5.4-1.1-10.8c2.7,4.7,3.3,10.1,3,11.8c0,0,0,0,0.1,0
		c11.8-5.3-3.2-16.3-6.3-18c0.3,0.3,0.3,3.2,0.1,3.9C89.7,62.8,88.6,64.6,90.2,67.4z"/>
	<path class="st0" d="M169.5,77.2C169.5,77.2,169.5,77.3,169.5,77.2c1.3-1.8,6.2-6.3,12.5-8.4c-5.8,3.7-7.9,5.7-9.8,9
		c2.8,0.6,5,0.7,7.7-0.2c3.7-1.3,4.2-3.9,6.9-8.3c0.4-0.7,2.8-3.5,3.3-3.5C185.8,64.9,163,62.6,169.5,77.2L169.5,77.2z"/>
	<path class="st0" d="M192.3,129.2c-4.4-4.8-5.7-7.9-10.7-8.5c-3.5-0.5-6.3,0.3-9.6,1.8c3.3,3.6,6.4,5.5,14.6,8.6
		c-8.4-1-15.7-5.2-17.7-7.2c0,0-0.1,0-0.1,0.1c-4.3,19.9,23.5,11.1,28.5,8.8C196.6,132.7,193,130,192.3,129.2z"/>
	<path class="st0" d="M192.5,150.5c-13.6,3.4-23.6,0.7-33.4-2.9c-12.6-4.7-26.7-3.5-35.1-2.6c-2.3,0-5.7-0.2-8.8-1.1
		c-4.8-1.5-7.2-6.1-7.9-7.5c0-0.1-0.1-0.2-0.1-0.3c0,0,0-0.1,0-0.1c-0.9-2.1-1.4-4.6-1.3-7.6c0.1-5.1,1.1-10,7.2-8.8
		c0.3,0.1,0.6,0.1,0.9,0.1c1.3,0.4,2.7,0.9,4,1.4c1.4,0.5,2.9,1.1,4.4,1.5c0.7,0.2,1.4,0.5,2.1,0.7c2.9,0.8,8.5,6,10.1,8.1
		c0.3,14.4,19.5,7,22.3,3.7c0,0-1.8-0.1-4.2-2.2c-3.8-3.2-4.7-5.7-8.5-6c-2-0.2-3.7,0.2-5.4,0.9c3.2,4.3,11.4,7,11.4,7
		s-5.6,0.2-8.3-1.3c-1.7-0.9-3.1-2.7-4.8-4.5c-0.9-1.1-2.4-2.6-4.1-4.1c1.6,0.1,3.1,0.2,4.7,0.2c0.5,0,1,0,1.5,0v0
		c0.3,0,0.7,0,1-0.1c15.7-0.6,31.7-7,41-12.8c13.6,5,15.1-20.3,14.8-25.4c-0.1,0.6-4,3-5,3.4c-6.1,2.4-9.4,2.5-11.8,7
		c-1.7,3.1-1.9,6-1.8,9.6c4.5-1.8,7.4-4,13.2-10.6c-3.9,7.5-11.4,12.9-13.6,14.3c-6.7,3.8-16,7.6-26,9.6c4-3.2,6.5-6.7,6.7-7
		c0.4-2.1,1.1-4.1,2.1-5.5c1.5-2.1,5.8-4.1,5.8-4.1s-5.3,5.2-6.1,9.6c1.6-0.1,3-0.4,4.4-1.3c2.8-1.6,2.5-3.9,4.2-7.7
		c1.1-2.5,2.4-3.3,2.4-3.3c-3.3-1.5-20-0.1-15.9,10.5c-1.1,1.4-7.5,9.6-15.3,10.2c-5.5,0.2-10.9-0.4-16-2.1c-1.4-0.5-2.9-1-4.3-1.5
		c-2.6-0.9-5.2-1.9-7.9-2.6c0.1-0.1,0.2-0.2,0.4-0.3c4.8-4,9.8-8.2,14.8-8.9c4-0.6,8.4-0.4,11-0.2c7.6,6.3,14.1-7.5,13.9-10.8
		c0,0-1.1,0.9-3.6,1c-3.9,0.2-5.8-0.7-8.1,1.1c-1.2,1-2,2.1-2.6,3.4c4.1,0.7,10.3-2.2,10.3-2.2s-3.1,3.1-5.5,3.8
		c-0.9,0.3-1.8,0.2-3,0.2c-2.5-0.2-8-0.6-13.1,0.2c-1.7,0.2-3.3,0.8-4.9,1.5c2-3,4.2-6.2,6.3-8.3c1.3,0.4,2.5,0.6,3.9,0.3
		c2.3-0.5,2.9-1.9,4.7-4.3c1.2-1.6,1.9-1.8,2.2-1.8c-2.2-0.8-10.8-3-12.7,2.6c-2.8,2.5-5.4,6.4-8,10.3c-1.5,2.3-3.4,4.9-6.1,7.6
		c-0.3,0.2-0.5,0.4-0.9,0.8c-0.1,0.1-0.2,0.2-0.3,0.2c0,0,0,0-0.1,0.1c-3.3,2.6-4.5-2.9-4-5.7c0.4-2.4,0.6-5.8,3.8-10.1
		c0.8-1,1.6-1.9,2.4-2.8l0.1-0.1c3.2-3.2,7.1-5.7,11.6-7.2c0.2-0.1,0.5-0.2,0.7-0.2c4.7-1.6,13.7-1.9,19.4,1.7l0.5,0.3
		c5.9,3.7,11.1,7,16.2,8.1c9.7,10.6,19.3-7.7,19.1-12c0,0-1.4,1.1-4.6,1.1c-5,0.1-7.3-1.2-10.3,1.1c-1.6,1.2-2.6,2.6-3.4,4.3
		c5.2,1.1,13.2-2.4,13.2-2.4s-4.1,3.8-7.1,4.5c-1.9,0.4-4.3,0.4-7.6-0.5c-4.1-1.3-8.5-4-13.5-7.2l-0.5-0.3c-2.5-1.6-5.8-2.6-9-3.2
		c4.2-1.6,8.3-3.3,12.5-5.1c2.8-1.2,5.9-2.9,8.2-5c1.6-1.5,3.1-3.1,4.4-4.9c14.4-0.5,6.5-24.5,4.4-29.1c0.1,0.6-2.6,4.3-3.4,5.1
		c-4.8,4.5-7.8,5.8-8.4,10.8c-0.4,3.5,0.4,6.3,1.8,9.6c3.5-3.4,5.4-6.5,8.4-14.7c-0.9,8.3-5.6,16.1-7.6,18.2c-0.7,0.7-1.4,1.4-2.2,2
		c-2.2,1.9-4.5,3-7.3,4c-5.5,2.1-11.3,4-17,5.8c-2.4,0.8-4.8,1.5-7.3,2.2c1.6-2.6,2.6-5.1,3.4-7.4l1.2-0.9c8.9-1.5,4-15.3,1.6-17.4
		c0,0-0.1,1.4-1.9,3.3c-2.6,2.9-4.6,3.6-4.9,6.6c-0.2,1.6,0.1,2.9,0.6,4.3c3.4-2.4,5.8-8.9,5.8-8.9s0,4.4-1.2,6.5
		c-0.8,1.4-2.3,2.8-3.9,3.9h0c-0.2,0.5-0.4,0.9-0.5,1.4c-1.2,3-2.2,5.8-4.7,9c-0.8,1.1-1.9,1.9-3.1,2.5c-3.8,1.9-7.1,4.5-9.9,7.5
		c0.1-0.5,0.2-1,0.3-1.5c1.4-7.1,2.5-14.3,2.5-21.6c0-0.9,0-1.9,0.2-2.8c0-0.4,0.1-0.7,0.2-1c1.6-6,7-10.6,15.1-11.6
		c8.3-0.9,14.5,4.2,18.2,7.8c0.2,1.5,0.6,2.6,1.6,3.8c1.4,1.6,2.7,1.3,5.4,1.8c1.6,0.3,2.4,1.2,2.4,1.2c-0.2-1.6-2-8.8-6.5-9
		c-1.4-1.4-3.1-3-5.2-4.5c7.3-1.1,11.4-5.8,11.6-6.1c1.2-0.3,2.1-0.7,3-1.5c1.6-1.4,1.2-2.8,1.7-5.4c0.3-1.7,1.1-2.4,1.1-2.4
		c-1.6,0.2-9.3,2.3-8.8,7.2c-1.4,1.1-8.3,6-17.9,3.9h0c4.3-2.7,8.9-6.4,11.7-10.2c14-0.8,6.2-24.5,4.1-29.1c0.1,0.6-2.6,4.3-3.4,5.1
		c-4.8,4.5-7.8,5.8-8.4,10.8c-0.4,3.5,0.4,6.3,1.8,9.6c3.6-3.4,5.4-6.5,8.4-14.7c-0.9,8.5-5.3,16.2-7.3,18.2
		c-1.1,1.1-2.4,2.1-3.6,3.1c-3.2,2.5-6.7,4.8-10.5,6.2c-0.5,0.2-1.1,0.3-1.6,0.5c-1.7,0.4-3.3,0.9-5,1.6c1.8-2.8,3.4-5.9,4.4-9.1
		c7.8,1.6,8.5-13.5,8.2-16.6c-0.1,0.4-2.5,2-3.2,2.2c-3.9,1.6-6,1.7-7.4,4.6c-1.1,2-1.2,3.9-1.1,6.2c2.9-1.2,4.7-2.6,8.3-6.9
		c-2.4,4.9-6.6,8.3-8.2,9.1c-1.3,5.1-5.6,10.1-8.3,13.8c-0.8,1.1-2.2,3.1-3.3,4.9c-0.3,0.5-0.6,1-0.9,1.6c0,0.1-0.1,0.1-0.1,0.2
		c-1.8-3.6-2.5-17.7,3.3-23.7c6.3-6.6,8.7-11.6,8.8-11.8h0c-0.7-2.4-1.1-5-0.8-7c0.4-3.1,3.9-7.5,3.9-7.5s-2.8,8.3-1.3,13.4
		c1.6-1,2.9-2.1,3.9-3.8c2-3.2,0.6-5.4,0.2-10.4c-0.2-3.2,0.7-4.7,0.7-4.7c-4.3,0.2-21.3,11-10.8,19.8c-1.1,1.8-3.4,5.3-7.3,9.5
		c-4.1,4.3-5.6,10.2-6.2,13.4c-0.3,1.9-0.5,3.8-0.5,5.6c-0.7-0.7-1.5-1.3-2.2-2c-4.6-4.1-1.5-17,0.1-21.6c0.1-0.3,0.2-0.6,0.3-0.9
		c11.3-8.6-5.7-20-10-20.3c0,0,0.9,1.5,0.6,4.8c-0.4,5-1.9,7.1,0,10.4c1,1.7,2.3,2.9,3.9,3.9c1.6-5.1-1-13.4-1-13.4s3.4,4.5,3.8,7.5
		c0.2,2-0.4,4.9-1.1,7.3c-1.4,4-4,11.3-2.8,17.8c-0.1-0.1-0.2-0.1-0.3-0.2c-4.9-3.2-10.7-7.1-13.2-12.3c-1.4-3.5-3.1-11.5-1.4-19.9
		c0.4,8.8,1.2,12.3,3.6,16.6c2.4-2.7,4-5.1,4.6-8.6c0.9-5-1.6-7.1-4.8-12.9c-0.5-1-2-5.3-1.7-5.8c-3.5,3.8-18.6,24.6-4.6,29.2
		c1.8,7.7,9.4,12.6,15.5,16.7c2,1.3,3.9,2.5,5.2,3.7c5.9,4.9,9.6,9.7,9.6,15.7c-0.2,6.6-1.4,13.4-2.9,19.9c-0.3,1.4-0.7,2.9-1.1,4.4
		c-0.8-3.4-1.6-6.8-2.6-10.2c-1.7-5.5-4.7-9.3-8.5-12.1c0,0,0,0-0.1,0c-0.2-0.2-0.5-0.4-0.8-0.5c-3.1-2.2-5.3-3.8-7.8-7
		c-2.2-2.7-4.7-7.2-5.7-12.2c0.7-1.4,1.2-2.5,1.1-4c-0.1-2.1-1.4-2.7-3.2-4.7c-1.1-1.3-1.2-2.4-1.2-2.4c-0.8,1.3-3.7,8-0.4,11
		c0.8,4.6,2.9,9.4,5.7,13.4c-1-0.5-2.1-0.9-2.8-1.3c-2.7-1.4-5-3.3-6.4-5.9c-1.4-2.4-2-5.2-3-7.9c9.1-7.1-4.9-17.3-8.6-17.8
		c0,0,0.7,1.4,0.4,4.2c-0.5,4.4-2,6.2-0.3,9.2c0.8,1.6,1.9,2.6,3.2,3.5c1.6-4.4-0.4-11.8-0.4-11.8s2.8,4,3,6.8
		c0.1,1.8-0.4,4-1.1,6.1c1.1,2.7,1.5,6.4,3.3,9.7c0.9,1.7,2,3.2,3.4,4.5c2.6,2.5,6.3,3.7,9.4,5.3c4.1,2.1,8.4,4.6,11.3,8
		c4.3,4.7,4.9,11.2,6.1,17.2c0.2,1.2,0.4,2.4,0.6,3.7c0,0.8,0.1,1.5,0.1,2.3c-0.8-2.4-1.9-4.7-3.2-7c-2.4-4-6-7.2-10.3-9
		c-0.6-0.3-1.3-0.6-2.1-0.8c-6-2.4-11-8.8-12.6-12.5h0c0,0,0,0,0-0.1c-1.8-0.3-6.7-2.4-10.4-6.4c4.7,3,6.8,3.9,9.9,4.2
		c-0.5-2.2-1.2-4-2.7-5.6c-2.2-2.3-4.3-1.8-8.4-2.3c-0.7-0.1-3.5-0.9-3.7-1.3C52,61.3,56.9,75.6,63.9,72c1,1.9,2.6,4.2,4.5,6.4
		c-1.3-0.4-2.5-0.8-3.5-1.2c-10.2-3.5-16.1-4.6-20.6-14.7c-1.3-3.7-3-9.8-2.4-16.6c1.4,8.7,2.7,12.1,5.5,16c2-3,3.4-5.5,3.6-9.1
		c0.3-5-2.4-6.9-6.2-12.2c-0.6-0.9-2.6-5-2.4-5.6c-3,4.2-15.6,26.7-1.1,29.5c2.1,4.9,5.6,9.6,10.5,12.1c5.2,2.6,11.9,4.8,17.8,6.9
		c-2.7,0.4-5.3,1.1-7.6,1.9c-0.4-0.7-0.8-1.3-1.5-1.8c-1.6-1.3-2.9-0.8-5.6-0.8c-1.7,0-2.5-0.7-2.5-0.7c0.5,1.5,3.6,8.5,8.2,7.6l0,0
		c0.1,0,0.1,0,0.1-0.1c0.5-0.1,1-0.3,1.5-0.6c9-3.4,16.2-2.5,20.2,0.1c5.3,3.9,7.5,10.4,8.6,17c-2-1.9-6.6-5.7-12.3-7l0,0
		c-4.5-1.3-11.7-0.5-18.1,0.1l-1.7,0.2c-1.5,0.1-2.7,0.1-3.9-0.1c-0.3-0.1-0.6-0.2-1-0.2c-2.9-0.9-4.8-3.1-7-6
		c-3.7-5-7.5-8.7-11.6-11.3c-1.7-1.1-4-2.1-6.5-2.9c-3.1-1.2-10.7-2.4-17.1-7.3c8,3.6,11.5,4.4,16.4,4.1c-1.4-3.3-2.8-5.9-5.6-8
		c-4-3-7.1-1.8-13.6-1.4c-1.1,0.1-5.6-0.5-6-1C5,70,17,93.2,27.3,82.1c2.4,0.8,4.7,1.7,6.3,2.7c3.7,2.4,7.2,5.8,10.7,10.4
		c0.8,1.1,1.7,2.3,2.7,3.3c-4.4,0.1-8.9,0.8-12.4,1.8c0,0,0,0-0.1,0c-0.5,0.1-1,0.3-1.5,0.4c-3.8,1-10.5,2.3-17.7,0.8
		c8.7-0.4,12.3-1.3,16.5-3.7c-2.7-2.4-5.1-4-8.6-4.6c-4.9-0.9-7.1,1.6-12.8,4.9c-1,0.5-5.2,2.1-5.8,1.8c3.8,3.5,24.6,18.6,29.1,4.4
		c5.1-1.5,14-3.1,20.4-1.4h0c0,0,0,0,0.1,0c1.5,0.3,3.2,0.4,5.1,0.2l1.7-0.2c6.4-0.6,14.3-1.4,17.8,0.1c0.3,0.1,0.6,0.3,0.9,0.5
		c-3.7-0.4-7.7,0.3-11.3,2.6c-2.5,1.6-4.4,3.3-5.8,5.1c-13.8,1.7-4.6,24.9-2.2,29.3c-0.2-0.6,2.3-4.4,3.1-5.2
		c4.5-4.8,7.4-6.3,7.7-11.3c0.2-3.6-0.8-6.3-2.4-9.5c-3.3,3.6-5,6.8-7.5,15.2c0.4-8.5,3.7-15.8,6.8-18.9c0.7-0.6,1.5-1.1,2.3-1.7
		c5.6-3.6,12.5-2.1,16.5,0.6c4.8,3.8,4.7,13.2,3.4,21.2c-0.6,3.9-1.3,7-2.3,9.3c-3,6.2-16.8,7.3-25,7c-6.8-0.5-13.8-2.4-18.5-2.7
		c-11.6-0.7-28.7,2.4-34.1,4.3l0.9,1.2c3.7-1.3,12.2-2.3,19.1-2.7c-5.6,2.3-10.2,5.1-12,6.8l1,1.1c2.5-2.4,13.4-7.6,23.6-7.3
		c2.4,0.1,6.5,1.2,9.9,1.7c-16.6,10.2-24,17-24.2,17.1l1,0.8c1.1-0.9,5.8-5,13.2-8.6c-0.8,2.3-2,7.4-2.2,10.6l1.2,0.6
		c1.6-9.4,4.5-12.8,8.8-15c5.7-2.7,14.2-4.3,20.4-4.4c2.5,0,2.5,1.6,0.5,3.1c-4.9,3.7-6.1,4.2-11.9,7.7l0.7,1.3
		c9.1-5,17.1-9.4,29.6-11.1c3.8-0.5,6.1-0.5,13,2.3c9.6,3.7,13.2,5.6,21.9,10.4l0.7-1.2c-4.9-3.7-10.4-6.7-10.8-6.8
		c-1.9-1-1.8-2.9,2.4-2.2c4.4,0.8,10,2.9,16.6,5c5.6,1.8,14.4,4.8,24.1,9.2l0.6-1.5c-4.9-2.9-20.7-9-25.7-11.8
		c12.9,1.8,20.1,1.1,22.3,0.5l0.1-1.8c-9.6,1-24.2-0.9-27.7-2.3c-2.2-0.9-1.5-3.4,1.4-3.6c1.6-0.1,12.8-1.2,19.4-0.1
		c11.6,2,22.7,8.3,30.3,22.1l1.3-0.7c-4.1-7.6-8.1-13.9-14.5-17.3c6.4,1.6,8.2,1.5,12.6,3.5c3.2,1.4,11.1,7.3,11.1,7.3l1-0.9
		c-0.1-0.1-2.8-2.9-11.7-8.2c0,0-0.1,0-0.1-0.1c7.6-0.1,14.2-1.8,14.6-1.9L192.5,150.5L192.5,150.5L192.5,150.5z"/>
	<path class="st0" d="M81.9,200c-0.4,0-0.8-0.1-1.1-0.3c-0.4-0.2-0.7-0.4-0.9-0.7s-0.5-0.6-0.6-1c-0.1-0.4-0.2-0.8-0.2-1.2
		s0.1-0.8,0.2-1.2c0.1-0.4,0.4-0.7,0.6-1c0.3-0.3,0.6-0.5,0.9-0.7c0.4-0.2,0.7-0.2,1.2-0.2c0.6,0,1.1,0.1,1.5,0.4
		c0.4,0.3,0.7,0.6,0.9,1l-0.6,0.4c-0.2-0.4-0.4-0.6-0.8-0.8c-0.3-0.2-0.7-0.3-1.1-0.3c-0.3,0-0.6,0.1-0.9,0.2
		c-0.3,0.1-0.5,0.3-0.7,0.6c-0.2,0.2-0.3,0.5-0.4,0.8c-0.1,0.3-0.1,0.6-0.1,0.9c0,0.3,0.1,0.7,0.2,1c0.1,0.3,0.3,0.6,0.5,0.8
		s0.4,0.4,0.7,0.5c0.3,0.1,0.6,0.2,0.9,0.2c0.4,0,0.7-0.1,1-0.3c0.3-0.2,0.6-0.5,0.9-0.8v0.8C83.3,199.7,82.7,200,81.9,200L81.9,200
		z M83.8,197.4h-1.3v-0.6h2v3.1h-0.7V197.4z"/>
	<path class="st0" d="M90.1,200v-6.3h2.7c0.3,0,0.5,0.1,0.8,0.2c0.2,0.1,0.4,0.3,0.6,0.5c0.2,0.2,0.3,0.4,0.4,0.6s0.1,0.5,0.1,0.7
		c0,0.3-0.1,0.6-0.2,0.8c-0.1,0.3-0.3,0.5-0.5,0.7s-0.4,0.3-0.7,0.4l1.5,2.4H94l-1.4-2.3h-1.7v2.3H90.1z M90.9,197h1.9
		c0.2,0,0.4-0.1,0.6-0.2c0.2-0.1,0.3-0.3,0.4-0.5c0.1-0.2,0.1-0.4,0.1-0.6s-0.1-0.5-0.2-0.7c-0.1-0.2-0.2-0.4-0.4-0.5
		c-0.2-0.1-0.4-0.2-0.6-0.2h-1.8L90.9,197L90.9,197z"/>
	<path class="st0" d="M102.9,200c-0.4,0-0.8-0.1-1.2-0.3c-0.4-0.2-0.7-0.4-0.9-0.7c-0.3-0.3-0.5-0.6-0.6-1c-0.1-0.4-0.2-0.8-0.2-1.2
		s0.1-0.8,0.2-1.2c0.1-0.4,0.4-0.7,0.6-1c0.3-0.3,0.6-0.5,0.9-0.7c0.4-0.2,0.7-0.3,1.2-0.3c0.4,0,0.8,0.1,1.2,0.3
		c0.4,0.2,0.7,0.4,0.9,0.7c0.3,0.3,0.5,0.7,0.6,1c0.1,0.4,0.2,0.8,0.2,1.2c0,0.4-0.1,0.8-0.2,1.2c-0.1,0.4-0.4,0.7-0.6,1
		c-0.3,0.3-0.6,0.5-0.9,0.7S103.3,200,102.9,200L102.9,200z M100.7,196.8c0,0.3,0.1,0.6,0.2,0.9c0.1,0.3,0.2,0.6,0.4,0.8
		c0.2,0.2,0.4,0.4,0.7,0.5c0.3,0.1,0.6,0.2,0.9,0.2c0.3,0,0.6-0.1,0.9-0.2c0.3-0.1,0.5-0.3,0.7-0.6c0.2-0.2,0.3-0.5,0.4-0.8
		c0.1-0.3,0.1-0.6,0.1-0.9c0-0.3-0.1-0.6-0.2-0.9s-0.2-0.6-0.4-0.8c-0.2-0.2-0.4-0.4-0.7-0.5c-0.3-0.1-0.6-0.2-0.9-0.2
		c-0.3,0-0.6,0.1-0.9,0.2c-0.3,0.1-0.5,0.3-0.7,0.6c-0.2,0.2-0.3,0.5-0.4,0.8S100.7,196.5,100.7,196.8L100.7,196.8L100.7,196.8z"/>
	<path class="st0" d="M113.9,200c-0.5,0-0.9-0.1-1.3-0.3s-0.6-0.4-0.8-0.7c-0.2-0.3-0.4-0.6-0.4-1c-0.1-0.4-0.1-0.8-0.1-1.2v-3.2
		h0.8v3.2c0,0.3,0,0.6,0.1,0.9s0.2,0.6,0.3,0.8c0.1,0.2,0.3,0.4,0.6,0.6c0.2,0.1,0.5,0.2,0.9,0.2s0.7-0.1,0.9-0.2
		c0.2-0.1,0.4-0.3,0.6-0.6c0.1-0.2,0.2-0.5,0.3-0.8c0.1-0.3,0.1-0.6,0.1-0.9v-3.2h0.8v3.2c0,0.4,0,0.8-0.1,1.2
		c-0.1,0.4-0.2,0.7-0.5,1c-0.2,0.3-0.5,0.5-0.8,0.7C114.8,199.9,114.4,200,113.9,200L113.9,200z"/>
	<path class="st0" d="M122.4,200v-6.3h2.6c0.3,0,0.5,0.1,0.8,0.2c0.2,0.1,0.4,0.3,0.6,0.5c0.2,0.2,0.3,0.4,0.4,0.6s0.1,0.5,0.1,0.7
		c0,0.3-0.1,0.7-0.2,1c-0.2,0.3-0.4,0.6-0.6,0.8c-0.3,0.2-0.6,0.3-1,0.3h-1.9v2.3L122.4,200L122.4,200z M123.2,197h1.8
		c0.2,0,0.4-0.1,0.6-0.2c0.2-0.1,0.3-0.3,0.4-0.5c0.1-0.2,0.1-0.4,0.1-0.7c0-0.2-0.1-0.5-0.2-0.7c-0.1-0.2-0.2-0.4-0.4-0.5
		s-0.4-0.2-0.6-0.2h-1.8V197z"/>
	<path class="st0" d="M49.4,180.3v3.7h8.7c0.2,0,0.4-0.1,0.5-0.1c0.1-0.1,0.2-0.3,0.3-0.5h0.3v3.5h-0.3c-0.1-0.2-0.2-0.4-0.3-0.5
		c-0.1-0.1-0.3-0.1-0.5-0.1H45.8V186c0.2-0.1,0.4-0.2,0.5-0.3c0.1-0.1,0.1-0.3,0.1-0.5v-11.5c0-0.2,0-0.4-0.1-0.5
		c-0.1-0.1-0.3-0.2-0.5-0.3v-0.3h12c0.2,0,0.4,0,0.5-0.1c0.1-0.1,0.2-0.3,0.3-0.5h0.3v3.5h-0.3c-0.1-0.2-0.2-0.4-0.3-0.5
		c-0.1-0.1-0.3-0.1-0.5-0.1h-8.5v3.2h5.5c0.2,0,0.4,0,0.5-0.1c0.1-0.1,0.2-0.3,0.3-0.5h0.3v3.4h-0.3c-0.1-0.2-0.2-0.4-0.3-0.5
		c-0.1-0.1-0.3-0.1-0.5-0.1L49.4,180.3L49.4,180.3z"/>
	<path class="st0" d="M77.7,186.3l-5-9.4v8.3c0,0.2,0,0.4,0.1,0.5c0.1,0.1,0.3,0.2,0.5,0.3v0.3h-4V186c0.2-0.1,0.4-0.2,0.5-0.3
		c0.1-0.1,0.1-0.3,0.1-0.5v-11.5c0-0.2-0.1-0.4-0.1-0.5c-0.1-0.1-0.3-0.2-0.5-0.3v-0.3h5.2v0.3c-0.3,0.1-0.5,0.3-0.5,0.5
		c0,0.1,0,0.3,0.1,0.5l3.7,7l3.7-6.9c0.2-0.3,0.2-0.5,0.2-0.7c0-0.3-0.2-0.4-0.5-0.5v-0.3h5.1v0.3c-0.2,0.1-0.4,0.2-0.5,0.3
		c-0.1,0.1-0.1,0.3-0.1,0.5v11.5c0,0.2,0,0.4,0.1,0.5c0.1,0.1,0.3,0.2,0.5,0.3v0.3h-4.2V186c0.2-0.1,0.4-0.1,0.5-0.3
		c0.1-0.1,0.1-0.3,0.1-0.5v-8.3L77.7,186.3L77.7,186.3L77.7,186.3z"/>
	<path class="st0" d="M109.1,179.2c1.5,0.6,2.3,1.6,2.3,3.2c0,1.2-0.4,2.2-1.3,2.9c-0.4,0.4-1,0.6-1.6,0.8s-1.3,0.2-2.2,0.2h-9.2
		V186c0.2-0.1,0.4-0.2,0.5-0.3c0.1-0.1,0.1-0.3,0.1-0.5v-11.5c0-0.2-0.1-0.4-0.1-0.5c-0.1-0.1-0.3-0.2-0.5-0.3v-0.3h9.2
		c0.9,0,1.6,0.1,2.1,0.2c0.5,0.1,1,0.4,1.4,0.7c0.8,0.6,1.2,1.5,1.2,2.7C110.9,177.6,110.3,178.6,109.1,179.2L109.1,179.2
		L109.1,179.2z M100.6,178.1h5.2c0.8,0,1.3-0.1,1.6-0.3c0.4-0.3,0.5-0.7,0.5-1.2s-0.2-1-0.5-1.2c-0.3-0.2-0.9-0.4-1.7-0.4h-5.2
		V178.1L100.6,178.1z M100.6,184h5c0.9,0,1.6-0.1,2-0.4c0.5-0.3,0.7-0.8,0.7-1.5c0-0.7-0.2-1.2-0.7-1.5c-0.4-0.3-1.1-0.4-2-0.4h-5
		V184L100.6,184z"/>
	<path class="st0" d="M125.1,184h8.3c0.2,0,0.4,0,0.5-0.1c0.1-0.1,0.2-0.3,0.3-0.5h0.3v3.5h-0.3c-0.1-0.2-0.2-0.4-0.3-0.5
		c-0.1-0.1-0.3-0.1-0.5-0.1h-11.9V186c0.2-0.1,0.4-0.2,0.5-0.3c0.1-0.1,0.1-0.3,0.1-0.5v-11.5c0-0.2,0-0.4-0.1-0.5
		c-0.1-0.1-0.3-0.2-0.5-0.3v-0.3h4.2v0.3c-0.2,0.1-0.4,0.1-0.5,0.3c-0.1,0.1-0.1,0.3-0.1,0.5L125.1,184L125.1,184z"/>
	<path class="st0" d="M154.6,182.8h-6.1l-0.9,1.9c-0.1,0.3-0.2,0.5-0.2,0.6c0,0.3,0.2,0.5,0.7,0.6v0.3h-4.5V186
		c0.3-0.1,0.5-0.1,0.6-0.3c0.1-0.1,0.3-0.4,0.5-0.8l5-10.4c0.2-0.3,0.2-0.6,0.2-0.8c0-0.3-0.2-0.5-0.6-0.7v-0.3h4.8v0.3
		c-0.4,0.1-0.6,0.3-0.6,0.6c0,0.2,0.1,0.4,0.2,0.7l5.2,10.5c0.2,0.4,0.4,0.7,0.6,0.9c0.2,0.2,0.4,0.3,0.7,0.3v0.3h-5V186
		c0.4-0.1,0.7-0.3,0.7-0.6c0-0.1-0.1-0.3-0.2-0.6L154.6,182.8L154.6,182.8L154.6,182.8z M153.8,181l-2.2-4.8l-2.2,4.8H153.8z"/>
</g>
</svg>
