<?xml version="1.0" encoding="UTF-8"?>
<svg xmlns="http://www.w3.org/2000/svg" xmlns:xlink="http://www.w3.org/1999/xlink" width="px" height="200px" viewBox="0 0 200 200" version="1.1">
<g id="surface1">
<path style=" stroke:none;fill-rule:evenodd;fill:rgb(15.686275%,23.529412%,51.372549%);fill-opacity:1;" d="M 99.992188 199.984375 L 0 99.992188 L 99.992188 0 L 199.984375 99.992188 Z M 99.992188 199.984375 "/>
<path style=" stroke:none;fill-rule:evenodd;fill:rgb(100%,100%,100%);fill-opacity:1;" d="M 160.476562 83.90625 C 157.953125 81.316406 154.808594 80.015625 151.0625 80.015625 L 149.769531 80.015625 C 148.324219 80.015625 147.605469 80.878906 147.605469 82.609375 L 147.605469 120.683594 C 147.605469 124.429688 149.40625 126.3125 153.011719 126.3125 L 155.175781 126.3125 L 155.175781 128.261719 L 130.511719 128.261719 L 130.511719 126.3125 L 132.675781 126.3125 C 136.429688 126.3125 138.304688 124.429688 138.304688 120.683594 L 138.304688 82.609375 C 138.304688 80.878906 137.507812 80.015625 135.921875 80.015625 L 134.839844 80.015625 C 131.089844 80.015625 127.953125 81.316406 125.433594 83.90625 C 122.902344 86.507812 121.574219 90.113281 121.429688 94.726562 L 119.480469 94.726562 C 117.75 84.203125 111.625 78.933594 101.089844 78.933594 C 96.476562 78.933594 92.582031 80.523438 89.410156 83.691406 C 85.226562 88.027344 83.136719 94.441406 83.136719 102.949219 C 83.136719 110.734375 84.753906 116.714844 88.003906 120.902344 C 91.25 125.082031 95.613281 127.175781 101.089844 127.175781 C 105.707031 127.175781 109.238281 126.3125 111.699219 124.578125 C 112.558594 124 112.988281 123.144531 112.988281 121.984375 L 112.988281 110.304688 C 112.988281 106.554688 111.1875 104.675781 107.585938 104.675781 L 105.417969 104.675781 L 105.417969 102.734375 L 129.214844 102.734375 L 129.214844 104.675781 L 127.917969 104.675781 C 124.167969 104.675781 122.296875 106.554688 122.296875 110.304688 L 122.296875 122.414062 C 116.675781 127.035156 109.457031 129.347656 100.664062 129.347656 C 90.851562 129.347656 83.28125 125.59375 77.949219 118.09375 L 77.949219 128.261719 L 37.273438 128.261719 L 37.273438 126.3125 L 39.652344 126.3125 C 43.117188 126.3125 44.84375 124.363281 44.84375 120.472656 L 44.84375 85.636719 C 44.84375 81.886719 43.117188 80.015625 39.652344 80.015625 L 37.273438 80.015625 L 37.273438 77.851562 L 62.585938 77.851562 L 62.585938 80.015625 L 59.777344 80.015625 C 56.023438 80.015625 54.148438 81.75 54.148438 85.207031 L 54.148438 122.851562 C 54.148438 125.15625 55.371094 126.3125 57.828125 126.3125 L 61.933594 126.3125 C 70.15625 126.3125 74.769531 122.492188 75.785156 114.84375 C 73.910156 111.09375 72.972656 107.132812 72.972656 102.949219 C 72.972656 95.15625 75.605469 88.851562 80.871094 84.011719 C 86.128906 79.183594 92.730469 76.765625 100.664062 76.765625 C 104.265625 76.765625 107.796875 77.347656 111.261719 78.5 C 115.441406 79.945312 117.53125 80.664062 117.53125 80.664062 C 118.679688 80.664062 119.332031 79.726562 119.480469 77.851562 L 166.210938 77.851562 L 166.210938 94.726562 L 164.265625 94.726562 C 164.265625 90.113281 163 86.507812 160.476562 83.90625 Z M 160.476562 83.90625 "/>
<path style=" stroke:none;fill-rule:nonzero;fill:rgb(100%,78.431373%,0%);fill-opacity:1;" d="M 101.65625 35.214844 L 98.121094 35.214844 L 98.121094 32.296875 L 95.515625 32.296875 L 95.515625 28.914062 L 98.121094 28.914062 L 98.121094 26 L 101.65625 26 L 101.65625 28.914062 L 104.261719 28.914062 L 104.261719 32.296875 L 101.65625 32.296875 Z M 101.65625 35.214844 "/>
<path style=" stroke:none;fill-rule:evenodd;fill:rgb(100%,78.431373%,0%);fill-opacity:1;" d="M 122.453125 56.472656 C 120.371094 62.769531 119.265625 66.171875 119.160156 66.6875 L 80.636719 66.6875 C 79.308594 62.289062 78.179688 58.859375 77.261719 56.402344 C 75.214844 50.160156 74.1875 46.320312 74.1875 44.890625 C 74.1875 41.207031 75.617188 38.34375 78.488281 36.296875 C 80.742188 34.65625 83.242188 33.835938 86.003906 33.835938 C 90.109375 33.835938 94.453125 35.378906 99.058594 38.441406 L 99.058594 51.183594 L 99.980469 50.722656 L 100.738281 51.183594 L 100.738281 38.441406 C 105.347656 35.378906 109.6875 33.835938 113.789062 33.835938 C 116.554688 33.835938 119.058594 34.65625 121.304688 36.296875 C 124.175781 38.34375 125.605469 41.207031 125.605469 44.890625 C 125.605469 46.320312 124.5625 50.1875 122.453125 56.472656 Z M 113.941406 36.753906 C 116.085938 36.753906 118.03125 37.417969 119.769531 38.75 C 121.714844 40.386719 122.691406 42.429688 122.691406 44.882812 C 122.691406 46.933594 121.917969 49.898438 120.386719 53.785156 L 114.089844 50.714844 L 107.03125 54.097656 L 103.816406 52.5625 L 103.816406 40.128906 C 107.183594 37.878906 110.5625 36.753906 113.941406 36.753906 Z M 80.003906 38.75 C 81.75 37.421875 83.738281 36.753906 85.992188 36.753906 C 89.265625 36.753906 92.597656 37.882812 95.976562 40.132812 L 95.976562 52.5625 L 92.902344 54.097656 L 85.6875 50.71875 L 79.386719 53.785156 C 77.957031 49.902344 77.242188 46.933594 77.242188 44.886719 C 77.242188 42.433594 78.160156 40.386719 80.003906 38.75 Z M 107.027344 57.460938 L 99.972656 54.089844 L 92.902344 57.460938 L 85.695312 54.089844 L 80.472656 56.542969 C 81.699219 59.820312 82.472656 62.222656 82.777344 63.757812 L 117.160156 63.757812 C 117.363281 62.222656 118.085938 59.820312 119.300781 56.542969 L 114.085938 54.089844 Z M 107.027344 57.460938 "/>
</g>
</svg>
