<?xml version="1.0" encoding="UTF-8"?>
<svg xmlns="http://www.w3.org/2000/svg" xmlns:xlink="http://www.w3.org/1999/xlink" width="px" height="200px" viewBox="0 0 571 200" version="1.1">
<g id="surface1">
<path style=" stroke:none;fill-rule:nonzero;fill:rgb(31.372549%,33.72549%,35.294118%);fill-opacity:1;" d="M 56.71875 0 C 61.289062 0 65.855469 0.191406 70.421875 0.570312 C 84.128906 7.617188 99.542969 11.046875 112.675781 19.238281 C 104.300781 23.429688 95.929688 27.429688 87.742188 31.808594 C 75.183594 22.667969 62.429688 13.90625 49.867188 4.953125 C 51.390625 3.808594 54.816406 1.332031 56.71875 0 Z M 56.71875 0 "/>
<path style=" stroke:none;fill-rule:nonzero;fill:rgb(31.372549%,33.72549%,35.294118%);fill-opacity:1;" d="M 39.96875 16.570312 C 42.0625 12.761719 47.773438 8.191406 51.769531 12 C 60.527344 20.570312 61.097656 33.523438 63.761719 44.761719 C 50.820312 52 38.066406 59.617188 24.933594 66.855469 C 28.742188 49.90625 30.835938 31.808594 39.96875 16.570312 Z M 39.96875 16.570312 "/>
<path style=" stroke:none;fill-rule:nonzero;fill:rgb(31.372549%,33.72549%,35.294118%);fill-opacity:1;" d="M 163.6875 50.855469 C 177.582031 62.09375 192.996094 72.761719 202.894531 88.191406 C 206.320312 92.953125 207.464844 101.332031 200.421875 103.429688 C 189.953125 105.144531 179.292969 101.90625 169.96875 97.523438 C 166.160156 82.285156 166.542969 66.285156 163.6875 50.855469 Z M 163.6875 50.855469 "/>
<path style=" stroke:none;fill-rule:nonzero;fill:rgb(31.372549%,33.72549%,35.294118%);fill-opacity:1;" d="M 172.0625 122.476562 C 184.433594 116.570312 196.613281 110.285156 209.175781 104.570312 C 208.035156 124.953125 188.429688 136 174.34375 147.617188 C 173.394531 139.238281 172.824219 130.855469 172.0625 122.476562 Z M 172.0625 122.476562 "/>
<path style=" stroke:none;fill-rule:nonzero;fill:rgb(31.372549%,33.72549%,35.294118%);fill-opacity:1;" d="M 23.980469 134.09375 C 31.976562 138.09375 39.78125 142.476562 47.394531 147.046875 C 45.679688 163.238281 44.539062 179.238281 43.015625 195.429688 C 27.597656 179.046875 26.074219 155.429688 23.980469 134.09375 Z M 23.980469 134.09375 "/>
<path style=" stroke:none;fill-rule:nonzero;fill:rgb(31.372549%,33.72549%,35.294118%);fill-opacity:1;" d="M 48.726562 186.285156 C 53.484375 174.855469 64.714844 168 73.847656 160.570312 C 87.171875 167.429688 100.304688 174.285156 113.820312 180.382812 C 95.355469 188.570312 76.132812 196.191406 56.148438 199.617188 C 53.675781 195.429688 47.011719 192.191406 48.726562 186.285156 Z M 48.726562 186.285156 "/>
<path style=" stroke:none;fill-rule:nonzero;fill:rgb(70.196078%,80.392157%,11.764706%);fill-opacity:1;" d="M 132.28125 20.382812 C 138.753906 18.285156 149.601562 17.523438 150.742188 26.476562 C 156.074219 62.285156 160.070312 98.285156 164.066406 134.285156 C 164.828125 147.617188 167.113281 160.953125 166.351562 174.285156 C 166.351562 180.761719 161.023438 187.046875 154.359375 186.855469 C 145.222656 187.046875 136.660156 182.855469 128.664062 178.855469 C 90.980469 160 52.914062 141.144531 15.796875 120.570312 C 8.753906 116.191406 -1.140625 110.285156 0 100.761719 C 3.808594 90.476562 14.464844 85.523438 23.21875 80.382812 C 53.863281 62.855469 84.699219 45.523438 115.34375 28.382812 C 120.863281 25.332031 126.382812 22.476562 132.28125 20.382812 M 59.574219 96.953125 C 54.054688 100.191406 47.773438 103.046875 43.96875 108.382812 C 40.539062 115.808594 48.535156 121.523438 54.054688 125.144531 C 79.941406 140 107.15625 152.570312 133.996094 165.714844 C 139.324219 168 144.84375 171.617188 150.933594 170.855469 C 157.023438 169.90625 158.929688 162.476562 157.976562 157.144531 C 155.121094 124.191406 149.984375 91.429688 147.316406 58.285156 C 143.320312 56 138.941406 51.617188 134.183594 54.855469 C 109.0625 68.382812 84.699219 83.238281 59.574219 96.953125 Z M 59.574219 96.953125 "/>
<path style=" stroke:none;fill-rule:nonzero;fill:rgb(70.196078%,80.392157%,11.764706%);fill-opacity:1;" d="M 270.652344 69.332031 C 275.414062 69.332031 280.171875 69.332031 284.929688 69.332031 C 278.457031 78.476562 272.558594 87.808594 266.277344 96.953125 C 272.746094 106.855469 279.21875 116.761719 286.070312 126.476562 C 281.3125 126.476562 276.746094 126.476562 271.988281 126.476562 C 266.847656 118.476562 262.089844 110.09375 257.902344 101.523438 C 253.332031 110.09375 248.386719 118.285156 243.246094 126.476562 C 238.488281 126.476562 233.539062 126.476562 228.78125 126.667969 C 235.632812 116.953125 242.292969 107.046875 248.957031 97.144531 C 242.675781 88 236.585938 78.476562 229.921875 69.523438 C 234.679688 69.523438 239.4375 69.332031 244.386719 69.332031 C 249.144531 76.761719 253.714844 84.570312 257.902344 92.382812 C 261.707031 84.382812 266.085938 76.761719 270.652344 69.332031 Z M 270.652344 69.332031 "/>
<path style=" stroke:none;fill-rule:nonzero;fill:rgb(70.196078%,80.392157%,11.764706%);fill-opacity:1;" d="M 348.882812 69.332031 C 352.878906 69.332031 356.875 69.332031 360.871094 69.332031 C 360.492188 84.761719 360.683594 100 360.683594 115.429688 C 369.246094 115.808594 377.621094 115.808594 386.1875 115.808594 C 386.1875 118.476562 386.1875 123.808594 386.1875 126.667969 C 376.859375 126.476562 367.535156 127.046875 358.398438 126.285156 C 354.210938 124.953125 349.640625 121.714844 349.640625 116.953125 C 348.691406 101.144531 349.453125 85.144531 348.882812 69.332031 Z M 348.882812 69.332031 "/>
<path style=" stroke:none;fill-rule:nonzero;fill:rgb(70.196078%,80.392157%,11.764706%);fill-opacity:1;" d="M 299.011719 71.808594 C 311.195312 68.382812 325.28125 67.808594 337.082031 72.570312 C 345.453125 78.667969 343.363281 90.285156 343.933594 99.238281 C 343.171875 107.617188 344.882812 120.191406 335.175781 124 C 322.613281 127.617188 307.769531 128.570312 295.777344 122.476562 C 288.355469 114.855469 290.257812 103.238281 290.066406 93.714844 C 290.640625 86.09375 290.640625 75.429688 299.011719 71.808594 M 303.582031 81.90625 C 301.105469 92.761719 302.25 104 303.199219 115.046875 C 311.957031 117.523438 322.234375 119.808594 330.417969 114.667969 C 334.035156 103.808594 331.941406 92 331.371094 80.953125 C 322.234375 78.855469 311.765625 76.191406 303.582031 81.90625 Z M 303.582031 81.90625 "/>
<path style=" stroke:none;fill-rule:nonzero;fill:rgb(70.196078%,80.392157%,11.764706%);fill-opacity:1;" d="M 410.167969 69.90625 C 415.878906 69.714844 421.589844 69.144531 427.296875 70.09375 C 430.914062 73.144531 431.867188 77.90625 433.390625 82.09375 C 438.148438 96.953125 443.097656 111.808594 448.042969 126.667969 C 443.667969 126.667969 439.480469 126.855469 435.292969 126.855469 C 429.582031 111.046875 425.015625 94.667969 419.304688 78.855469 C 414.164062 94.855469 409.214844 111.046875 403.507812 126.855469 C 400.269531 126.855469 393.800781 126.855469 390.5625 126.667969 C 397.414062 107.808594 402.746094 88.382812 410.167969 69.90625 Z M 410.167969 69.90625 "/>
<path style=" stroke:none;fill-rule:nonzero;fill:rgb(70.196078%,80.392157%,11.764706%);fill-opacity:1;" d="M 452.421875 69.332031 C 464.222656 69.714844 476.023438 68.570312 487.632812 70.09375 C 499.433594 76 498.863281 95.238281 488.964844 102.667969 C 492.582031 110.476562 495.4375 118.476562 497.910156 126.667969 C 493.726562 126.667969 489.726562 126.476562 485.539062 126.285156 C 483.066406 119.238281 480.402344 112.191406 477.355469 105.332031 C 475.261719 105.332031 470.882812 105.714844 468.601562 105.714844 C 468.410156 101.90625 468.410156 98.285156 468.21875 94.476562 C 473.167969 93.714844 479.070312 95.617188 483.257812 92 C 484.96875 88.570312 485.730469 82.476562 481.925781 80.191406 C 475.832031 79.429688 469.742188 79.808594 463.652344 79.617188 C 463.460938 95.238281 463.652344 110.855469 463.84375 126.285156 C 460.035156 126.285156 456.230469 126.285156 452.421875 126.285156 C 452.421875 107.617188 452.613281 88.570312 452.421875 69.332031 Z M 452.421875 69.332031 "/>
<path style=" stroke:none;fill-rule:nonzero;fill:rgb(70.196078%,80.392157%,11.764706%);fill-opacity:1;" d="M 502.671875 69.523438 C 506.667969 69.523438 510.855469 69.523438 514.851562 69.332031 C 514.089844 88.382812 515.042969 107.429688 514.660156 126.667969 C 510.664062 126.667969 506.667969 126.667969 502.671875 126.667969 C 502.859375 107.617188 503.050781 88.570312 502.671875 69.523438 Z M 502.671875 69.523438 "/>
<path style=" stroke:none;fill-rule:nonzero;fill:rgb(70.196078%,80.392157%,11.764706%);fill-opacity:1;" d="M 524.75 100 C 516.375 91.808594 517.707031 72.761719 530.648438 69.714844 C 543.59375 68.953125 556.535156 69.714844 569.476562 69.523438 C 569.476562 72.191406 569.476562 77.523438 569.476562 80.191406 C 557.296875 80.570312 544.925781 79.429688 532.742188 80.761719 C 531.601562 84.382812 532.171875 88.191406 532.363281 92 C 544.164062 94.09375 560.914062 87.046875 568.527344 99.617188 C 573.285156 108.953125 570.429688 122.476562 559.960938 126.476562 C 546.828125 127.429688 533.695312 126.476562 520.371094 126.855469 C 520.371094 124.191406 520.371094 118.667969 520.371094 115.808594 C 532.171875 115.617188 544.164062 116.570312 555.964844 115.429688 C 558.4375 112.191406 558.820312 108.761719 557.488281 104.761719 C 547.589844 100.191406 534.644531 106.667969 524.75 100 Z M 524.75 100 "/>
</g>
</svg>
